<svg id="Layer_1" data-name="Layer 1" xmlns="http://www.w3.org/2000/svg" viewBox="0 0 48 48"><defs>
<style>.cls-1{fill:#d8d8d8;}.cls-2{fill:#191919;}.cls-3{fill:#161616;}</style>
</defs><title>Social Media Icons</title>
<rect class="cls-1" x="20.62" y="20.78" width="6.75" height="6.52" transform="translate(-6.39 8.87) rotate(-18.52)"/>
<path class="cls-1" d="M46,17.4C41,.9,33.9-2.94,17.4,2S-2.94,14.1,2,30.6,14.1,50.94,30.6,46,50.94,33.9,46,17.4Z"/>
<path d="M19.57,34.46c-.81,0-.67-.31-.95-1.08l-2.38-7.82L34.53,14.71"/>
<path class="cls-2" d="M19.57,34.46a1.58,1.58,0,0,0,1.24-.63l3.33-3.23L20,28.1"/>
<path class="cls-3" d="M20,28.1,30,35.52c1.15.64,2,.31,2.26-1.06l4.09-19.28c.42-1.68-.64-2.44-1.73-1.94l-24,9.26c-1.64.66-1.63,1.57-.3,2L16.5,26.4l14.27-9c.67-.41,1.29-.19.79.26"/>
</svg>