<?xml version="1.0" encoding="utf-8"?>
<!-- Generator: Adobe Illustrator 21.1.0, SVG Export Plug-In . SVG Version: 6.00 Build 0)  -->
<svg version="1.1" id="Layer_1" xmlns="http://www.w3.org/2000/svg" xmlns:xlink="http://www.w3.org/1999/xlink" x="0px" y="0px"
	 viewBox="0 0 100 100" style="enable-background:new 0 0 100 100;" xml:space="preserve">
<style type="text/css">
	.st0{fill:#EAEAEA;stroke:#EAEAEA;stroke-miterlimit:10;}
	.st1{fill:#212121;}
	.st2{fill:#2250A4;}
	.st3{fill:#424242;}
	.st4{fill:#F4F4F4;stroke:#F4F4F4;stroke-miterlimit:10;}
	.st5{fill:#FFFFFF;}
</style>
<g id="Layer_2_3_">
	
		<rect x="42.8" y="43.3" transform="matrix(0.9482 -0.3176 0.3176 0.9482 -13.3125 18.372)" class="st1" width="13.8" height="13.4"/>
	<path class="st1" d="M94.7,36.5C84.6,2.7,69.9-5.2,36.2,5S-5.5,29.7,4.7,63.5S29.4,105.1,63.2,95S104.8,70.2,94.7,36.5z"/>
</g>
<g>
	<polygon class="st5" points="69.5,77.5 69.5,59.6 75.5,59.6 75.5,83.5 21.8,83.5 21.8,59.6 27.7,59.6 27.7,77.5 	"/>
	<path class="st5" d="M34.3,57.9L63.5,64l1.2-5.9L35.5,52L34.3,57.9z M38.1,44l27,12.6l2.5-5.4l-27-12.7L38.1,44z M45.6,30.7
		l23,19.1l3.8-4.6l-23-19.1L45.6,30.7z M60.5,16.6l-4.8,3.6l17.8,24l4.8-3.6L60.5,16.6z M33.7,71.5h29.8v-6H33.7V71.5z"/>
</g>
</svg>
