<svg id="Layer_1" data-name="Layer 1" xmlns="http://www.w3.org/2000/svg" viewBox="0 0 100 100"><defs><style>.cls-1{fill:none;stroke:#2196f3;stroke-miterlimit:10;stroke-width:2px;}</style></defs><title>adtoken icons</title><path class="cls-1" d="M25.55,62.72V41.5a3.17,3.17,0,0,1,3.21-3.17l8,0.1a3.17,3.17,0,0,1,3.13,3.17V62.72"/><line class="cls-1" x1="25.55" y1="52.33" x2="39.42" y2="52.33"/><path class="cls-1" d="M44.64,38.29V61.4H55.42a3.08,3.08,0,0,0,3.08-3.08V41.37a3.08,3.08,0,0,0-3.08-3.08H44.64Z"/><line class="cls-1" x1="68" y1="63" x2="68" y2="38"/><line class="cls-1" x1="60.89" y1="38.29" x2="75.6" y2="38.29"/><polyline class="cls-1" points="78.36 27.19 85.19 27.19 85.19 72.25 77.82 72.25"/><polyline class="cls-1" points="21.14 27.19 14.3 27.19 14.3 72.25 21.67 72.25"/></svg>