<svg id="Layer_1" data-name="Layer 1" xmlns="http://www.w3.org/2000/svg" viewBox="0 0 100 100"><defs><style>.cls-1{fill:none;stroke:#0071BC;stroke-miterlimit:10;stroke-width:2px;}</style></defs><title>adtoken icons</title><rect class="cls-1" x="19.6" y="70.91" width="35.77" height="6.32" rx="1.22" ry="1.22"/><rect class="cls-1" x="26.18" y="65.78" width="22.82" height="4.65" rx="2.32" ry="2.32"/><path class="cls-1" d="M52.1,49.76H80.76a2.66,2.66,0,0,1,2.66,2.66v0.31a2.66,2.66,0,0,1-2.66,2.66H52.1a0,0,0,0,1,0,0V49.76A0,0,0,0,1,52.1,49.76Z" transform="translate(41.32 -29.01) rotate(34.23)"/><rect class="cls-1" x="40.87" y="32.68" width="16.07" height="14.17" transform="translate(-11.49 57.83) rotate(-55.77)"/><path class="cls-1" d="M52,22.28h5.41a2.66,2.66,0,0,1,2.66,2.66v8.85a2.66,2.66,0,0,1-2.66,2.66H52a0,0,0,0,1,0,0V22.28A0,0,0,0,1,52,22.28Z" transform="translate(0.23 59.16) rotate(-55.77)"/><path class="cls-1" d="M40.51,43h5.41a0,0,0,0,1,0,0V57.17a0,0,0,0,1,0,0H40.51a2.66,2.66,0,0,1-2.66-2.66V45.65A2.66,2.66,0,0,1,40.51,43Z" transform="translate(-23.08 56.53) rotate(-55.77)"/></svg>