<svg id="Layer_1" data-name="Layer 1" xmlns="http://www.w3.org/2000/svg" viewBox="0 0 100 100"><defs><style>.cls-1{fill:none;stroke:#0071BC;stroke-miterlimit:10;stroke-width:2px;}</style></defs><title>adtoken icons</title><rect class="cls-1" x="45.58" y="20.95" width="8.2" height="8.2"/><rect class="cls-1" x="57.97" y="33.33" width="8.2" height="8.2"/><rect class="cls-1" x="70.36" y="20.95" width="8.2" height="8.2"/><rect class="cls-1" x="33.2" y="33.33" width="8.2" height="8.2"/><rect class="cls-1" x="20.81" y="20.95" width="8.2" height="8.2"/><rect class="cls-1" x="45.67" y="45.72" width="8.2" height="8.2"/><rect class="cls-1" x="58.05" y="58.1" width="8.2" height="8.2"/><rect class="cls-1" x="70.44" y="45.72" width="8.2" height="8.2"/><rect class="cls-1" x="33.28" y="58.1" width="8.2" height="8.2"/><rect class="cls-1" x="20.9" y="45.72" width="8.2" height="8.2"/><rect class="cls-1" x="45.58" y="70.7" width="8.2" height="8.2"/><rect class="cls-1" x="70.36" y="70.7" width="8.2" height="8.2"/><rect class="cls-1" x="20.81" y="70.7" width="8.2" height="8.2"/><line class="cls-1" x1="29.01" y1="29.14" x2="33.2" y2="33.33"/><line class="cls-1" x1="41.4" y1="33.33" x2="45.58" y2="29.14"/><line class="cls-1" x1="66.17" y1="33.33" x2="70.36" y2="29.14"/><line class="cls-1" x1="57.97" y1="33.33" x2="53.78" y2="29.14"/><line class="cls-1" x1="53.86" y1="45.72" x2="58.01" y2="41.57"/><line class="cls-1" x1="45.67" y1="45.72" x2="41.44" y2="41.49"/><line class="cls-1" x1="53.86" y1="53.92" x2="58.05" y2="58.1"/><line class="cls-1" x1="66.25" y1="58.1" x2="70.44" y2="53.92"/><line class="cls-1" x1="29.09" y1="45.72" x2="33.24" y2="41.57"/><line class="cls-1" x1="41.48" y1="58.1" x2="45.67" y2="53.92"/><line class="cls-1" x1="29.09" y1="53.92" x2="33.28" y2="58.1"/><line class="cls-1" x1="33.28" y1="66.3" x2="28.95" y2="70.64"/><line class="cls-1" x1="41.48" y1="66.3" x2="45.73" y2="70.55"/><line class="cls-1" x1="58.05" y1="66.3" x2="53.72" y2="70.64"/><line class="cls-1" x1="66.25" y1="66.3" x2="70.5" y2="70.55"/><line class="cls-1" x1="70.44" y1="45.72" x2="66.21" y2="41.49"/></svg>