<?xml version="1.0" encoding="utf-8"?>
<!-- Generator: Adobe Illustrator 21.1.0, SVG Export Plug-In . SVG Version: 6.00 Build 0)  -->
<svg version="1.1" id="Layer_1" xmlns="http://www.w3.org/2000/svg" xmlns:xlink="http://www.w3.org/1999/xlink" x="0px" y="0px"
	 viewBox="0 0 99.4 99.4" style="enable-background:new 0 0 99.4 99.4;" xml:space="preserve">
<style type="text/css">
	.st0{fill:#EAEAEA;stroke:#EAEAEA;stroke-miterlimit:10;}
	.st1{fill:#212121;}
	.st2{fill:#2250A4;}
	.st3{fill:#424242;}
	.st4{fill:#F4F4F4;stroke:#F4F4F4;stroke-miterlimit:10;}
	.st5{fill:#FFFFFF;}
	.st6{fill:#FAFAFA;}
	.st7{fill:#272425;}
</style>
<g id="Layer_2_7_">
	<rect x="42.8" y="43" transform="matrix(0.9482 -0.3176 0.3176 0.9482 -13.219 18.3552)" class="st6" width="13.8" height="13.4"/>
	<path class="st6" d="M94.7,36.2C84.6,2.4,69.9-5.5,36.2,4.7S-5.5,29.4,4.7,63.2s24.7,41.6,58.5,31.5S104.8,69.9,94.7,36.2z"/>
</g>
<path id="Shape_1_" class="st7" d="M25.2,34.7c0.1-0.8-0.2-1.6-0.8-2.1l-6-7.2v-1.1H37l14.4,31.5L64,24.3h17.7v1.1l-5.1,4.9
	c-0.4,0.3-0.7,0.9-0.6,1.4v36.1c-0.1,0.5,0.1,1.1,0.6,1.4l5,4.9v1.1H56.5v-1.1l5.2-5c0.5-0.5,0.5-0.7,0.5-1.4V38.5L47.8,75h-1.9
	L29.1,38.5V63c-0.1,1,0.2,2.1,0.9,2.8l6.7,8.2V75H17.6V74l6.7-8.2c0.7-0.7,1-1.8,0.9-2.8V34.7z"/>
</svg>
