<?xml version="1.0" encoding="utf-8" standalone="yes"?><svg version="1.1" baseProfile="full" xmlns="http://www.w3.org/2000/svg" xmlns:xlink="http://www.w3.org/1999/xlink" xmlns:ev="http://www.w3.org/2001/xml-events"  width="1920px" height = "1080px"><metadata><?xpacket begin="" id=""?><x:xmpmeta xmlns:x="adobe:ns:meta/"><rdf:RDF xmlns:rdf="http://www.w3.org/1999/02/22-rdf-syntax-ns#"><rdf:Description rdf:about="" xmlns:xapRights="http://ns.adobe.com/xap/1.0/rights/"><xapRights:Marked>True</xapRights:Marked></rdf:Description><rdf:Description rdf:about="" xmlns:xapRights="http://ns.adobe.com/xap/1.0/rights/"><xapRights:WebStatement rdf:resource="http://www.xmple.com/wallpaper/blue-magenta-gradient-highlight-linear-1920x1080-c2-0b0d2c-2c0b2b-l-50-a-345-f-21-image/"/></rdf:Description><rdf:Description rdf:about="" xmlns:xapRights="http://ns.adobe.com/xap/1.0/rights/"><xapRights:UsageTerms><rdf:Alt><rdf:li xml:lang="en" >This work is licensed under a &lt;a rel=&#34;license&#34; href=&#34;http://creativecommons.org/licenses/by-nc-nd/4.0/&#34;&gt;Creative Commons Attribution-NonCommercial-NoDerivatives 4.0 International License&lt;/a&gt;.</rdf:li></rdf:Alt></xapRights:UsageTerms></rdf:Description><rdf:Description rdf:about="" xmlns:dc="http://purl.org/dc/elements/1.1/"><dc:title><rdf:Alt><rdf:li xml:lang="en">blue magenta gradient highlight linear dark blue dark magenta 1920x1080 #0b0d2c #2c0b2b 345° 50%</rdf:li></rdf:Alt></dc:title></rdf:Description><rdf:Description rdf:about="" xmlns:cc="http://creativecommons.org/ns#"><cc:license rdf:resource="http://creativecommons.org/licenses/by-nc-nd/4.0/"/></rdf:Description><rdf:Description rdf:about="" xmlns:cc="http://creativecommons.org/ns#"></rdf:Description><rdf:Description rdf:about="" xmlns:cc="http://creativecommons.org/ns#"></rdf:Description></rdf:RDF></x:xmpmeta><?xpacket end="r"?></metadata><title>blue magenta gradient highlight linear dark blue dark magenta 1920x1080 #0b0d2c #2c0b2b 345° 50%</title><desc>blue magenta gradient highlight linear dark blue dark magenta 1920x1080 #0b0d2c #2c0b2b 345° 50%</desc><style type="text/css" ><![CDATA[.x{font:20px verdana;fill:#fff;stroke:#555;stroke-width:20px;opacity:0.35;}.o{stroke:none;opacity:0.01;}]]></style><defs><linearGradient id="p1" x1="100%" y1="73.817705993878%" x2="0%" y2="26.182294006122%"><stop offset="0%" style="stop-color:#0b0d2c;stop-opacity:1" /><stop offset="50%" style="stop-color:#2c0b2b;stop-opacity:1" /><stop offset="100%" style="stop-color:#0b0d2c;stop-opacity:1" /></linearGradient></defs><rect width="1920" height="1080" x="0" y="0" fill="#0b0d2c" /><rect width="1920" height="1080" x="0" y="0" fill="url(#p1)" /><path class="x o" d="M5 5h2v1H6v1h1v1H5zM4 3h4v1h1v5H8v1H4V9H3V4h1v5h4V4H4zm7 1h1v2h1V4h1v2h-1v1h1v2h-1V7h-1v2h-1V7h1V6h-1zm4 0h5v5h-1V5h-1v4h-1V5h-1v4h-1zm6 0h3l-1 1h-1v3h1V5l1-1v5h-2v2h-1zm4-2h1v6h1v1h-2zm3 2h3l-1 1h-1v1h1V5l1-1v3h-2v1h2v1h-3V4zm4 4h1v1h-1zm2-4h3v1h-2v3h2v1h-3zm4 0h3v5h-3l1-1h1V5h-1v3l-1 1zm4 0h5v5h-1V5h-1v4h-1V5h-1v4h-1z"/></svg>