<?xml version="1.0" encoding="utf-8"?>
<!-- Generator: Adobe Illustrator 21.1.0, SVG Export Plug-In . SVG Version: 6.00 Build 0)  -->
<svg version="1.1" id="Layer_1" xmlns="http://www.w3.org/2000/svg" xmlns:xlink="http://www.w3.org/1999/xlink" x="0px" y="0px"
	 viewBox="0 0 407.9 170.1" style="enable-background:new 0 0 407.9 170.1;" xml:space="preserve">
<style type="text/css">
	.st0{fill:#FAFAFA;}
	.st1{fill:#424242;}
	.st2{fill:none;stroke:url(#SVGID_1_);stroke-width:2;stroke-miterlimit:10;}
	.st3{fill:#E0E0E0;}
	.st4{fill:none;stroke:url(#SVGID_2_);stroke-miterlimit:10;}
	.st5{fill:none;stroke:url(#SVGID_3_);stroke-width:2;stroke-miterlimit:10;}
	.st6{fill:none;stroke:url(#SVGID_4_);stroke-miterlimit:10;}
	.st7{fill:none;stroke:#0071BC;stroke-miterlimit:10;}
	.st8{fill:none;stroke:#0071BC;stroke-width:2;stroke-miterlimit:10;}
	.st9{fill:#4A4A4A;}
	.st10{fill:#0071BC;}
	.st11{fill:none;stroke:#4A4A4A;stroke-width:0.5;stroke-miterlimit:10;}
	.st12{fill:none;stroke:#63AA59;stroke-width:2;stroke-miterlimit:10;}
	.st13{fill:none;stroke:#C62828;stroke-width:2;stroke-miterlimit:10;}
	.st14{fill:none;stroke:url(#SVGID_5_);stroke-miterlimit:10;}
	.st15{fill:none;stroke:#BDBDBD;stroke-miterlimit:10;}
	.st16{fill:none;stroke:url(#SVGID_6_);stroke-width:2;stroke-miterlimit:10;}
	.st17{fill:none;stroke:url(#SVGID_7_);stroke-width:2;stroke-miterlimit:10;}
	.st18{fill:none;stroke:url(#SVGID_8_);stroke-miterlimit:10;}
	.st19{fill:none;stroke:url(#SVGID_9_);stroke-width:2;stroke-miterlimit:10;}
	.st20{fill:none;stroke:url(#SVGID_10_);stroke-miterlimit:10;}
	.st21{fill:none;stroke:url(#SVGID_11_);stroke-miterlimit:10;}
	.st22{fill:none;stroke:url(#SVGID_12_);stroke-width:2;stroke-miterlimit:10;}
	.st23{fill:none;stroke:url(#SVGID_13_);stroke-width:2;stroke-miterlimit:10;}
	.st24{fill:none;stroke:url(#SVGID_14_);stroke-width:2;stroke-miterlimit:10;}
	.st25{fill:none;stroke:url(#SVGID_15_);stroke-width:2;stroke-miterlimit:10;}
	.st26{fill:none;stroke:url(#SVGID_16_);stroke-width:2;stroke-miterlimit:10;}
	.st27{fill:none;stroke:url(#SVGID_17_);stroke-width:2;stroke-miterlimit:10;}
	.st28{fill:none;stroke:url(#SVGID_18_);stroke-width:2;stroke-miterlimit:10;}
	.st29{fill:none;stroke:url(#SVGID_19_);stroke-width:2;stroke-miterlimit:10;}
	.st30{fill:#0A6AB8;}
	.st31{fill:#1E4DA7;}
	.st32{fill:url(#SVGID_22_);}
	.st33{fill:url(#SVGID_23_);}
	.st34{fill:url(#SVGID_24_);}
	.st35{fill:url(#SVGID_25_);}
	.st36{fill:url(#SVGID_26_);}
	.st37{fill:url(#SVGID_27_);}
	.st38{fill:url(#SVGID_28_);}
	.st39{fill:url(#SVGID_29_);}
	.st40{fill:url(#SVGID_30_);}
	.st41{fill:url(#SVGID_31_);}
	.st42{fill:url(#SVGID_32_);}
	.st43{fill:url(#SVGID_33_);}
	.st44{fill:url(#SVGID_34_);}
	.st45{fill:url(#SVGID_35_);}
	.st46{fill:url(#SVGID_36_);}
	.st47{fill:url(#SVGID_37_);}
	.st48{fill:url(#SVGID_38_);}
	.st49{fill:url(#SVGID_39_);}
	.st50{fill:url(#SVGID_40_);}
	.st51{fill:url(#SVGID_41_);}
	.st52{fill:url(#SVGID_42_);}
	.st53{fill:url(#SVGID_43_);}
	.st54{fill:url(#SVGID_44_);}
	.st55{fill:url(#SVGID_45_);}
	.st56{fill:url(#SVGID_46_);}
	.st57{fill:url(#SVGID_47_);}
	.st58{fill:url(#SVGID_48_);}
	.st59{fill:url(#SVGID_49_);}
	.st60{fill:url(#SVGID_50_);}
	.st61{fill:url(#SVGID_51_);}
	.st62{fill:url(#SVGID_52_);}
	.st63{fill:url(#SVGID_53_);}
	.st64{font-family:'TitilliumWeb-SemiBold';}
	.st65{font-size:9.0553px;}
	.st66{font-family:'TitilliumWeb-Light';}
	.st67{font-size:7.7617px;}
	.st68{font-family:'TitilliumWeb-Bold';}
	.st69{font-size:7.1149px;}
	.st70{font-size:5.1745px;}
	.st71{font-family:'TitilliumWeb-Regular';}
	.st72{font-family:'AvenirNext-Bold';}
	.st73{font-size:10.4537px;}
	.st74{font-family:'AvenirNext-Medium';}
</style>
<path class="st7" d="M71.8,39.8H11.4c-1.2,0-2.1-1-2.1-2.1v-27c0-1.2,1-2.1,2.1-2.1h60.4c1.2,0,2.1,1,2.1,2.1v27
	C74,38.8,73,39.8,71.8,39.8z"/>
<path class="st7" d="M192.5,39.8h-59.9c-1.3,0-2.4-1.1-2.4-2.4V10.9c0-1.3,1.1-2.4,2.4-2.4h59.9c1.3,0,2.4,1.1,2.4,2.4v26.5
	C194.9,38.7,193.8,39.8,192.5,39.8z"/>
<path class="st7" d="M259.8,39.8h-59.7c-1.4,0-2.5-1.1-2.5-2.5V11c0-1.4,1.1-2.5,2.5-2.5h59.7c1.4,0,2.5,1.1,2.5,2.5v26.4
	C262.3,38.7,261.2,39.8,259.8,39.8z"/>
<path class="st7" d="M381.2,39.8h-60.2c-1.2,0-2.2-1-2.2-2.2V10.7c0-1.2,1-2.2,2.2-2.2h60.2c1.2,0,2.2,1,2.2,2.2v26.9
	C383.4,38.8,382.4,39.8,381.2,39.8z"/>
<path class="st7" d="M229.9,159.9h-67.3c-1.1,0-1.9-0.9-1.9-1.9V68.4c0-1.1,0.9-1.9,1.9-1.9h67.3c1.1,0,1.9,0.9,1.9,1.9V158
	C231.9,159,231,159.9,229.9,159.9z"/>
<path class="st7" d="M258.6,91.5c0,0-5.2-0.7-5.8,0c-2.6,2.9,1.4,13.9,0,17.5c-1,2.7-5.8,5.8-5.8,5.8s4.8,3.5,5.8,5.8
	c1.2,2.6-1.9,15.3,0,17.5c0.7,0.8,5.8,0,5.8,0"/>
<path class="st7" d="M395.2,145H270.6c-1.3,0-2.4-1.1-2.4-2.4V89.4c0-1.3,1.1-2.4,2.4-2.4h124.6c1.3,0,2.4,1.1,2.4,2.4v53.1
	C397.6,143.9,396.5,145,395.2,145z"/>
<g>
	<line class="st7" x1="124.8" y1="27.5" x2="78.8" y2="27.5"/>
	<polyline class="st7" points="119.2,33.3 124.7,27.5 119.2,21.7 	"/>
</g>
<g>
	<line class="st7" x1="268.4" y1="27.5" x2="313.6" y2="27.5"/>
	<polyline class="st7" points="273.5,32.9 267.9,27.5 273.5,22.1 	"/>
</g>
<line class="st7" x1="176.5" y1="63.1" x2="176.5" y2="43"/>
<polyline class="st7" points="181.7,57.8 176.3,63.3 170.9,57.8 "/>
<text transform="matrix(1 0 0 1 23.4628 27.4963)" class="st9 st64 st65">site.com</text>
<text transform="matrix(1 0 0 1 152.0538 27.4963)" class="st9 st64 st65">apply</text>
<text transform="matrix(1 0 0 1 212.3787 27.4963)" class="st9 st64 st65">challenge</text>
<text transform="matrix(1 0 0 1 338.9213 21.8397)"><tspan x="0" y="0" class="st9 st64 st65">safety</tspan><tspan x="-1.3" y="10.9" class="st9 st64 st65">vendor</tspan></text>
<text transform="matrix(1 0 0 1 267.9486 14.8127)" class="st9 st66 st67">100 adToken</text>
<text transform="matrix(1 0 0 1 77.7738 14.8122)" class="st9 st66 st67">100 adToken</text>
<line class="st7" x1="219.2" y1="63.1" x2="219.2" y2="43"/>
<polyline class="st7" points="224.4,57.8 219,63.3 213.6,57.8 "/>
<text transform="matrix(1 0 0 1 167.3651 77.4577)" class="st10 st68 st69">adChain Registry</text>
<g>
	<text transform="matrix(1 0 0 1 167.1718 88.6188)" class="st9 st68 st70">domain name</text>
</g>
<g>
	<text transform="matrix(1 0 0 1 207.1932 88.6188)" class="st9 st68 st70">status</text>
</g>
<g>
	<text transform="matrix(1 0 0 1 166.4276 103.5075)"><tspan x="0" y="0" class="st9 st71 st70">nytimes.com</tspan><tspan x="2.7" y="18.6" class="st9 st71 st70">foobar.net</tspan><tspan x="4.8" y="37.3" class="st9 st71 st70">site.com</tspan></text>
</g>
<line class="st11" x1="201.3" y1="82" x2="201.3" y2="151"/>
<line class="st11" x1="224.4" y1="91.2" x2="164.4" y2="91.2"/>
<polyline class="st12" points="212.6,102.2 214.9,104.8 217.3,97.8 "/>
<g>
	<line class="st13" x1="217.9" y1="118" x2="211.9" y2="124"/>
	<line class="st13" x1="217.9" y1="124" x2="211.9" y2="118"/>
</g>
<text transform="matrix(1 0 0 1 212.0804 142.8971)" class="st9 st72 st73">?</text>
<g>
	<text transform="matrix(1 0 0 1 278.953 95.5421)"><tspan x="0" y="0" class="st9 st68 st70">ethereum</tspan><tspan x="2" y="6.2" class="st9 st68 st70">address</tspan></text>
</g>
<g>
	<text transform="matrix(1 0 0 1 315.4789 98.6086)" class="st9 st68 st70">vote</text>
</g>
<line class="st11" x1="310.6" y1="92" x2="310.6" y2="138.5"/>
<line class="st11" x1="387.9" y1="105.1" x2="273.8" y2="105.1"/>
<polyline class="st12" points="318.7,113.8 321,116.4 323.4,109.4 "/>
<g>
	<line class="st13" x1="324" y1="129.6" x2="317.9" y2="135.7"/>
	<line class="st13" x1="324" y1="135.7" x2="317.9" y2="129.6"/>
</g>
<g>
	<text transform="matrix(1 0 0 1 282.453 113.8551)"><tspan x="0" y="0" class="st9 st74 st70">0x123</tspan><tspan x="0.3" y="18.6" class="st9 st74 st70">0xabc</tspan></text>
</g>
<line class="st11" x1="330.1" y1="91.6" x2="330.1" y2="138.1"/>
<g>
	<text transform="matrix(1 0 0 1 340.3148 95.5422)"><tspan x="0" y="0" class="st9 st68 st70">number of votes</tspan><tspan x="-3.5" y="6.2" class="st9 st68 st70">(based on adToken)</tspan></text>
</g>
<g>
	<text transform="matrix(1 0 0 1 353.2836 113.8556)"><tspan x="0" y="0" class="st9 st74 st70">100</tspan><tspan x="0" y="18.6" class="st9 st74 st70">200</tspan></text>
</g>
</svg>
