<svg id="Layer_1" data-name="Layer 1" xmlns="http://www.w3.org/2000/svg" viewBox="0 0 630.44 263.82"><defs><style>.cls-1,.cls-10,.cls-8,.cls-9{fill:none;stroke-miterlimit:10;}.cls-1{stroke:#0071BC;}.cls-1,.cls-10,.cls-9{stroke-width:2px;}.cls-2{font-size:14px;}.cls-11,.cls-2,.cls-3,.cls-6,.cls-7{fill:#4a4a4a;}.cls-11,.cls-2,.cls-3,.cls-5,.cls-6,.cls-7{font-family:Avenir Next;}.cls-11,.cls-2,.cls-5,.cls-6{font-weight:700;}.cls-3{font-size:12px;}.cls-4{letter-spacing:-1px;}.cls-5{font-size:11px;fill:#0071BC;}.cls-6,.cls-7{font-size:8px;}.cls-8{stroke:#4a4a4a;stroke-width:0.5px;}.cls-9{stroke:#63aa59;}.cls-10{stroke:#c62828;}.cls-11{font-size:16.16px;}.cls-12{white-space:pre;}</style></defs><title>adtoken diagram</title><rect class="cls-1" x="12.3" y="14.61" width="100" height="48.39" rx="12" ry="12"/><rect class="cls-1" x="199.33" y="14.61" width="100" height="48.39" rx="12" ry="12"/><rect class="cls-1" x="303.48" y="14.61" width="100" height="48.39" rx="12" ry="12"/><rect class="cls-1" x="490.69" y="14.61" width="100" height="48.39" rx="12" ry="12"/><rect class="cls-1" x="246.37" y="104.23" width="110.04" height="144.51" rx="12" ry="12"/><path class="cls-1" d="M397.8,143s-8-1.12-9,0c-4,4.44,2.13,21.45,0,27-1.58,4.13-9,9-9,9s7.37,5.48,9,9c1.83,4-2.88,23.71,0,27,1.07,1.22,9,0,9,0"/><rect class="cls-1" x="412.5" y="135.95" width="200.15" height="89.65" rx="12" ry="12"/><line class="cls-1" x1="190.83" y1="44" x2="119.83" y2="44"/><polyline class="cls-1" points="182.19 53 190.69 44 182.19 35"/><line class="cls-1" x1="412.83" y1="44" x2="482.83" y2="44"/><polyline class="cls-1" points="420.73 52.38 412.2 44 420.73 35.62"/><line class="cls-1" x1="270.83" y1="99" x2="270.83" y2="68"/><polyline class="cls-1" points="278.9 90.79 270.52 99.31 262.14 90.79"/><text class="cls-2" transform="translate(34.22 44)">site.com</text><text class="cls-2" transform="translate(228.36 44)">apply</text><text class="cls-2" transform="translate(321.65 44)">challenge</text><text class="cls-2" transform="translate(521.48 36.8)">safety<tspan x="-3.72" y="16.8">vendor</tspan></text><text class="cls-3" transform="translate(412.2 24.39)">100 ad<tspan class="cls-4" x="38.54" y="0">T</tspan><tspan x="44.22" y="0">o</tspan><tspan x="51.54" y="0">k</tspan><tspan x="57.65" y="0">en</tspan></text><text class="cls-3" transform="translate(118.18 24.39)">100 ad<tspan class="cls-4" x="38.54" y="0">T</tspan><tspan x="44.22" y="0">o</tspan><tspan x="51.54" y="0">k</tspan><tspan x="57.65" y="0">en</tspan></text><line class="cls-1" x1="336.83" y1="99" x2="336.83" y2="68"/><polyline class="cls-1" points="344.9 90.79 336.52 99.31 328.14 90.79"/><text class="cls-5" transform="translate(256.7 121.24)">adChain <tspan x="46.91" y="0">R</tspan><tspan x="54.08" y="0">egistry</tspan></text><text class="cls-6" transform="translate(254.38 138.5)">domain name</text><text class="cls-6" transform="translate(318.46 138.5)">st<tspan x="6.27" y="0">a</tspan><tspan x="10.59" y="0">tus</tspan></text><text class="cls-7" transform="translate(253.58 161.52)">nytimes.com<tspan x="4.25" y="28.8">fooba</tspan><tspan x="25.92" y="28.8">r</tspan><tspan x="28.43" y="28.8">.net</tspan><tspan x="7.89" y="57.6">site.com</tspan></text><line class="cls-8" x1="309.13" y1="128.26" x2="309.13" y2="234.9"/><line class="cls-8" x1="344.9" y1="142.5" x2="252.09" y2="142.5"/><polyline class="cls-9" points="326.62 159.47 330.18 163.52 333.87 152.63"/><line class="cls-10" x1="334.82" y1="183.89" x2="325.49" y2="193.23"/><line class="cls-10" x1="334.82" y1="193.23" x2="325.49" y2="183.89"/><text class="cls-11" transform="translate(325.83 222.42)">?</text><text class="cls-6" transform="translate(423.47 153.94)">domain name</text><text class="cls-6" transform="translate(485.16 153.94)">vote</text><line class="cls-8" x1="478.22" y1="143.71" x2="478.22" y2="215.65"/><line class="cls-8" x1="597.69" y1="163.95" x2="421.19" y2="163.95"/><polyline class="cls-9" points="490.62 177.47 494.18 181.52 497.87 170.63"/><line class="cls-10" x1="498.82" y1="201.89" x2="489.49" y2="211.23"/><line class="cls-10" x1="498.82" y1="211.23" x2="489.49" y2="201.89"/><text class="cls-7" transform="translate(434.63 177.52)">0x123<tspan x="0.45" y="28.8">0xabc</tspan></text><line class="cls-8" x1="508.24" y1="143.05" x2="508.24" y2="215"/><text class="cls-6" transform="translate(522.13 149.2)">number o<tspan x="35.9" y="0">f</tspan><tspan class="cls-12" x="38.68" y="0"> votes</tspan><tspan x="-6.28" y="9.6">(based on ad</tspan><tspan x="42.06" y="9.6">T</tspan><tspan x="45.84" y="9.6">o</tspan><tspan x="50.72" y="9.6">k</tspan><tspan x="54.92" y="9.6">en)</tspan></text><text class="cls-7" transform="translate(544.14 177.52)">100<tspan x="0" y="28.8">200</tspan></text></svg>