<?xml version="1.0" encoding="utf-8"?>
<!-- Generator: Adobe Illustrator 16.0.0, SVG Export Plug-In . SVG Version: 6.00 Build 0)  -->
<!DOCTYPE svg PUBLIC "-//W3C//DTD SVG 1.1 Tiny//EN" "http://www.w3.org/Graphics/SVG/1.1/DTD/svg11-tiny.dtd">
<svg version="1.1" baseProfile="tiny" id="Layer_1" xmlns="http://www.w3.org/2000/svg" xmlns:xlink="http://www.w3.org/1999/xlink"
	 x="0px" y="0px" width="317px" height="145px" viewBox="0 0 317 145" xml:space="preserve">
<path fill="#00003B" d="M158.014,33.086c12.772-7.558,30.248-13.6,46.856-12.884c34.009,1.452,47.343,23.989,40.111,48.504
	c-10.493,35.6-57.912,41.486-71.697,39.527c5.788-5.134,10.304-10.784,13.161-16.769C196.831,69.663,183.158,49.207,158.014,33.086"
	/>
<path fill="#FF4300" d="M127.427,70.621c2.151-13.678,14.409-28.001,30.586-37.536c25.145,16.122,38.818,36.579,28.432,58.379
	c-2.857,5.986-7.373,11.636-13.161,16.77C145.517,104.198,124.102,91.777,127.427,70.621"/>
<path fill="#54C9EA" d="M103.758,9.59c20.611,5.198,39.3,13.914,54.255,23.496c-16.176,9.534-28.435,23.857-30.585,37.535
	c-3.327,21.156,18.09,33.578,45.855,37.611c-30.349,24.206-86.722,44.471-135.447,17.06C-22.265,91.455,4.391-15.484,103.758,9.59"
	/>
<path fill="#FFFFFF" d="M173.271,85.082c-0.89,0.164-2,0.218-2.585,0.218c-3.952,0-6.27-2.22-6.27-6.221
	c0-3.532,2.055-5.643,5.377-5.643c1.365,0,2.525,0.209,3.478,0.69V85.082z M173.271,58.234v9.3
	c-0.998-0.431-2.585-0.635-4.169-0.635c-7.533,0-12.285,5.112-12.285,12.437c0,8.02,5.383,12.344,13.604,12.344
	c3.434,0,7.385-0.428,10.337-1.213V58.234H173.271z M147.863,86.097c-0.742,0.149-1.796,0.205-2.428,0.205
	c-1.898,0-3.055-0.797-3.055-2.435c0-1.625,1.157-2.366,3.483-2.366h2V86.097z M145.226,66.899c-3.11,0-6.005,0.688-8.174,1.953
	v6.322c1.797-1.108,4.01-1.948,6.807-1.948c2.159,0,4.005,0.737,4.005,2.796v0.947h-2.529c-6.485,0-10.385,2.27-10.385,7.274
	c0,5.693,4.74,7.436,10.588,7.436c3.379,0,7.385-0.535,9.711-1.054V75.7C155.248,69.062,150.918,66.899,145.226,66.899"/>
<path fill="#FF4300" d="M307.412,117.417c-2.437,0-4.973,0.516-6.822,1.485v15.475h5.262v-11.806
	c0.636-0.149,1.228-0.215,1.786-0.215c1.196,0,2.387,0.151,3.488,0.624v-5.078C309.79,117.535,308.866,117.417,307.412,117.417
	 M288.833,124.694c0.294-1.821,1.29-3.081,3.002-3.081c1.932,0,2.599,1.486,2.599,3.081H288.833z M291.941,117.31
	c-4.75,0-8.237,3.336-8.237,8.986c0,5.112,3.341,8.447,8.988,8.447c2.258,0,4.562-0.44,6.119-1.484v-4.336
	c-1.633,0.848-3.34,1.334-5.534,1.334c-1.929,0-4.041-0.742-4.487-2.52v-0.084h10.472v-2.252
	C299.262,121.055,297.48,117.31,291.941,117.31 M277.273,129.333c-0.673,0.225-1.334,0.406-2.265,0.406
	c-2.155,0-3.671-1.451-3.671-3.93c0-2.71,1.557-3.937,3.971-3.937c0.739,0,1.475,0.107,1.965,0.289V129.333z M265.988,125.81
	c0,5.384,3.425,8.31,8.32,8.31c1.254,0,2.408-0.227,2.965-0.517v0.366c0,1.971-1.373,3.045-3.34,3.045
	c-2.154,0-3.715-0.44-5.894-1.742v4.854c1.89,0.893,3.813,1.301,5.894,1.301c3.744,0,8.606-1.516,8.606-7.458v-15.325
	c-1.967-0.774-4.335-1.334-7.231-1.334C269.52,117.31,265.988,120.539,265.988,125.81 M257.529,117.31
	c-2.594,0-5.896,0.593-8.307,1.551v15.517h5.262v-11.955c0.822-0.293,1.818-0.399,2.681-0.399c1.819,0,2.367,1.034,2.367,2.368
	v9.986h5.278v-10.201C264.811,118.902,261.904,117.31,257.529,117.31 M242.404,130.816c-0.518,0.106-1.26,0.149-1.707,0.149
	c-1.34,0-2.151-0.56-2.151-1.711s0.812-1.668,2.442-1.668h1.416V130.816z M240.548,117.31c-2.185,0-4.226,0.484-5.752,1.367v4.456
	c1.265-0.776,2.825-1.367,4.793-1.367c1.511,0,2.815,0.516,2.815,1.957v0.668h-1.781c-4.562,0-7.309,1.595-7.309,5.124
	c0,4.004,3.338,5.229,7.459,5.229c2.375,0,5.199-0.366,6.828-0.731v-10.504C247.602,118.826,244.557,117.31,240.548,117.31
	 M225.917,117.31c-1.787,0-3.231,0.398-3.826,0.666v-7.489h-5.264v23.891h5.264v-11.988c0.812-0.29,1.818-0.366,2.669-0.366
	c1.819,0,2.377,1.034,2.377,2.368v9.986h5.274v-10.201C232.411,118.978,229.441,117.31,225.917,117.31 M206.884,125.985
	c0-2.552,1.63-4.079,4.152-4.079c1.524,0,2.788,0.375,4.157,1.527v-4.897c-1.412-0.861-2.816-1.227-4.748-1.227
	c-5.272,0-8.868,3.595-8.868,8.76c0,5.188,3.266,8.674,8.868,8.674c1.744,0,3.412-0.29,4.822-1.225v-4.822
	c-1.143,0.969-2.518,1.451-4.041,1.451C208.443,130.147,206.884,128.372,206.884,125.985 M202.385,117.675h-6.055l-2.673,4.165
	l-2.636-4.165h-6.27l5.783,8.135l-6.155,8.567h5.864l3.154-4.638l3.228,4.638h6.125l-6.158-8.607L202.385,117.675z M173.833,124.694
	c0.294-1.821,1.301-3.081,3.013-3.081c1.928,0,2.594,1.486,2.594,3.081H173.833z M176.954,117.31c-4.747,0-8.244,3.336-8.244,8.986
	c0,5.112,3.341,8.447,8.979,8.447c2.269,0,4.569-0.44,6.123-1.484v-4.336c-1.623,0.848-3.34,1.334-5.525,1.334
	c-1.93,0-4.047-0.742-4.499-2.52v-0.084h10.473v-2.252C184.261,121.055,182.484,117.31,176.954,117.31"/>
</svg>
