<svg id="Layer_1" data-name="Layer 1" xmlns="http://www.w3.org/2000/svg" xmlns:xlink="http://www.w3.org/1999/xlink" viewBox="0 0 500 500"><defs><style>.cls-1,.cls-2,.cls-3,.cls-4,.cls-5,.cls-6,.cls-7,.cls-8,.cls-9{fill:none;stroke-miterlimit:10;stroke-width:10px;}.cls-1{stroke:url(#linear-gradient);}.cls-2{stroke:url(#linear-gradient-2);}.cls-3{stroke:url(#linear-gradient-3);}.cls-4{stroke:url(#linear-gradient-4);}.cls-5{stroke:url(#linear-gradient-5);}.cls-6{stroke:url(#linear-gradient-6);}.cls-7{stroke:url(#linear-gradient-7);}.cls-8{stroke:url(#linear-gradient-8);}.cls-9{stroke:url(#linear-gradient-9);}.cls-10{fill:url(#linear-gradient-10);}.cls-11{fill:url(#linear-gradient-11);}</style><linearGradient id="linear-gradient" x1="117.6" y1="240.99" x2="378.4" y2="240.99" gradientUnits="userSpaceOnUse"><stop offset="0" stop-color="#5c59bf"/><stop offset="1" stop-color="#2679b8"/></linearGradient><linearGradient id="linear-gradient-2" x1="290.97" y1="314.89" x2="385.73" y2="314.89" xlink:href="#linear-gradient"/><linearGradient id="linear-gradient-3" x1="314.11" y1="382.15" x2="359.58" y2="382.15" xlink:href="#linear-gradient"/><linearGradient id="linear-gradient-4" x1="148.54" y1="162.18" x2="348.21" y2="162.18" xlink:href="#linear-gradient"/><linearGradient id="linear-gradient-5" x1="148.54" y1="192.25" x2="348.21" y2="192.25" xlink:href="#linear-gradient"/><linearGradient id="linear-gradient-6" x1="148.54" y1="221.95" x2="348.21" y2="221.95" xlink:href="#linear-gradient"/><linearGradient id="linear-gradient-7" x1="148.54" y1="252.03" x2="348.21" y2="252.03" xlink:href="#linear-gradient"/><linearGradient id="linear-gradient-8" x1="148.54" y1="282.31" x2="279.39" y2="282.31" xlink:href="#linear-gradient"/><linearGradient id="linear-gradient-9" x1="148.54" y1="311.99" x2="279.39" y2="311.99" xlink:href="#linear-gradient"/><linearGradient id="linear-gradient-10" x1="335.49" y1="317.35" x2="350.5" y2="317.35" xlink:href="#linear-gradient"/><linearGradient id="linear-gradient-11" x1="323.26" y1="324.61" x2="336.47" y2="324.61" xlink:href="#linear-gradient"/></defs><title>MetaX Website Icons</title><polyline class="cls-1" points="287.82 350.94 122.6 350.94 122.6 131.05 373.4 131.05 373.4 264.92"/><path class="cls-2" d="M324.34,355.87a42.38,42.38,0,1,1,26.06.64"/><polygon class="cls-3" points="354.58 405.63 336.85 392.21 319.11 405.63 319.11 353.62 354.58 353.62 354.58 405.63"/><line class="cls-4" x1="148.54" y1="162.18" x2="348.21" y2="162.18"/><line class="cls-5" x1="148.54" y1="192.25" x2="348.21" y2="192.25"/><line class="cls-6" x1="148.54" y1="221.95" x2="348.21" y2="221.95"/><line class="cls-7" x1="148.54" y1="252.03" x2="348.21" y2="252.03"/><line class="cls-8" x1="148.54" y1="282.31" x2="279.39" y2="282.31"/><line class="cls-9" x1="148.54" y1="311.99" x2="279.39" y2="311.99"/><path class="cls-10" d="M345.74,300.62L331.62,329c-2.86,5.75,5.77,10.82,8.63,5l14.12-28.41c2.86-5.75-5.77-10.82-8.63-5h0Z"/><path class="cls-11" d="M339.63,328l-12.46-13.89c-4.31-4.8-11.36,2.29-7.07,7.07l12.46,13.89c4.31,4.8,11.36-2.29,7.07-7.07h0Z"/></svg>