<svg id="Layer_1" data-name="Layer 1" xmlns="http://www.w3.org/2000/svg" xmlns:xlink="http://www.w3.org/1999/xlink" viewBox="0 0 500 500"><defs><style>.cls-1,.cls-2,.cls-3,.cls-4,.cls-5{fill:none;stroke-miterlimit:10;stroke-width:10px;}.cls-1{stroke:url(#linear-gradient);}.cls-2{stroke:url(#linear-gradient-2);}.cls-3{stroke:url(#linear-gradient-3);}.cls-4{stroke:url(#linear-gradient-4);}.cls-5{stroke:url(#linear-gradient-5);}</style><linearGradient id="linear-gradient" x1="253.08" y1="344.8" x2="280.15" y2="344.8" gradientUnits="userSpaceOnUse"><stop offset="0" stop-color="#5c59bf"/><stop offset="1" stop-color="#2679b8"/></linearGradient><linearGradient id="linear-gradient-2" x1="100.22" y1="230.35" x2="411.52" y2="230.35" xlink:href="#linear-gradient"/><linearGradient id="linear-gradient-3" x1="250.87" y1="309.71" x2="260.87" y2="309.71" xlink:href="#linear-gradient"/><linearGradient id="linear-gradient-4" x1="199.63" y1="274.73" x2="226.7" y2="274.73" xlink:href="#linear-gradient"/><linearGradient id="linear-gradient-5" x1="219.02" y1="309.71" x2="229.02" y2="309.71" xlink:href="#linear-gradient"/></defs><title>MetaX Website Icons</title><line class="cls-1" x1="256.62" y1="354.8" x2="276.62" y2="334.8"/><path class="cls-2" d="M273.64,311.63h90s55.42-6.51,40.25-55.55C394,224,363.72,227,363.72,227c-22-39.84-59.11-22.2-59.11-22.2S287.23,160.14,239.42,182c0,0-36.09-62-95.07-16.09,0,0-26.64,23.11-14.6,62.7,0,0-25.63,7.79-24.5,44.29,1.3,42.23,43.39,38.7,43.39,38.7h58"/><line class="cls-3" x1="255.87" y1="260.87" x2="255.87" y2="358.55"/><line class="cls-4" x1="223.17" y1="264.73" x2="203.17" y2="284.73"/><line class="cls-5" x1="224.02" y1="260.87" x2="224.02" y2="358.55"/></svg>