<svg id="Layer_1" data-name="Layer 1" xmlns="http://www.w3.org/2000/svg" xmlns:xlink="http://www.w3.org/1999/xlink" viewBox="0 0 500 500"><defs><style>.cls-1,.cls-10,.cls-11,.cls-12,.cls-2,.cls-3,.cls-4,.cls-5,.cls-6,.cls-7,.cls-8,.cls-9{fill:none;stroke-miterlimit:10;stroke-width:10px;}.cls-1{stroke:url(#linear-gradient);}.cls-2{stroke:url(#linear-gradient-2);}.cls-3{stroke:url(#linear-gradient-3);}.cls-4{stroke:url(#linear-gradient-4);}.cls-5{stroke:url(#linear-gradient-5);}.cls-6{stroke:url(#linear-gradient-6);}.cls-7{stroke:url(#linear-gradient-7);}.cls-8{stroke:url(#linear-gradient-8);}.cls-9{stroke:url(#linear-gradient-9);}.cls-10{stroke:url(#linear-gradient-10);}.cls-11{stroke:url(#linear-gradient-11);}.cls-12{stroke:url(#linear-gradient-12);}</style><linearGradient id="linear-gradient" x1="3.83" y1="341.34" x2="30.9" y2="341.34" gradientTransform="translate(575.42 420.41) rotate(135)" gradientUnits="userSpaceOnUse"><stop offset="0" stop-color="#5c59bf"/><stop offset="1" stop-color="#2679b8"/></linearGradient><linearGradient id="linear-gradient-2" x1="262.95" y1="56.38" x2="290.02" y2="56.38" gradientTransform="translate(150.46 -59.95) rotate(45)" xlink:href="#linear-gradient"/><linearGradient id="linear-gradient-3" x1="282.73" y1="91.77" x2="292.73" y2="91.77" gradientTransform="translate(150.46 -59.95) rotate(45)" xlink:href="#linear-gradient"/><linearGradient id="linear-gradient-4" x1="147.92" y1="478.21" x2="174.99" y2="478.21" gradientTransform="translate(416.35 -276.19) rotate(45)" xlink:href="#linear-gradient"/><linearGradient id="linear-gradient-5" x1="125.52" y1="199.73" x2="152.59" y2="199.73" gradientTransform="translate(-64 148.78) rotate(-45)" xlink:href="#linear-gradient"/><linearGradient id="linear-gradient-6" x1="145.62" y1="235.42" x2="155.62" y2="235.42" gradientTransform="translate(-64 148.78) rotate(-45)" xlink:href="#linear-gradient"/><linearGradient id="linear-gradient-7" x1="-132.85" y1="484.74" x2="-105.78" y2="484.74" gradientTransform="translate(-121.17 579.48) rotate(-135)" xlink:href="#linear-gradient"/><linearGradient id="linear-gradient-8" x1="119.69" y1="-80.33" x2="146.76" y2="-80.33" gradientTransform="translate(359.18 154.52) rotate(135)" xlink:href="#linear-gradient"/><linearGradient id="linear-gradient-9" x1="139.08" y1="-45.35" x2="149.08" y2="-45.35" gradientTransform="translate(359.18 154.52) rotate(135)" xlink:href="#linear-gradient"/><linearGradient id="linear-gradient-10" x1="10.09" y1="621.15" x2="37.16" y2="621.15" gradientTransform="translate(-280.24 -117.12) rotate(-45)" xlink:href="#linear-gradient"/><linearGradient id="linear-gradient-11" x1="-17.42" y1="63.32" x2="9.65" y2="63.32" gradientTransform="translate(144.72 363.24) rotate(-135)" xlink:href="#linear-gradient"/><linearGradient id="linear-gradient-12" x1="1.97" y1="98.3" x2="11.97" y2="98.3" gradientTransform="translate(144.72 363.24) rotate(-135)" xlink:href="#linear-gradient"/></defs><title>MetaX Website Icons</title><line class="cls-1" x1="321.78" y1="205.47" x2="321.78" y2="177.19"/><line class="cls-2" x1="320.23" y1="175.43" x2="291.95" y2="175.43"/><line class="cls-3" x1="323.57" y1="173.87" x2="254.49" y2="242.94"/><line class="cls-4" x1="206.52" y1="176.12" x2="178.23" y2="176.12"/><line class="cls-5" x1="175.55" y1="177.54" x2="175.55" y2="205.82"/><line class="cls-6" x1="174.43" y1="174.21" x2="243.5" y2="243.28"/><line class="cls-7" x1="291.82" y1="321.09" x2="320.1" y2="321.09"/><line class="cls-8" x1="321.78" y1="319.67" x2="321.78" y2="291.39"/><line class="cls-9" x1="323.9" y1="323" x2="254.83" y2="253.93"/><line class="cls-10" x1="175.68" y1="291.25" x2="175.68" y2="319.54"/><line class="cls-11" x1="178.1" y1="321.22" x2="206.39" y2="321.22"/><line class="cls-12" x1="174.77" y1="323.34" x2="243.84" y2="254.27"/></svg>