<svg id="Layer_1" data-name="Layer 1" xmlns="http://www.w3.org/2000/svg" xmlns:xlink="http://www.w3.org/1999/xlink" viewBox="0 0 500 500"><defs><style>.cls-1,.cls-10{fill:none;stroke-miterlimit:10;stroke-width:10px;}.cls-1{stroke:url(#linear-gradient);}.cls-2{fill:url(#linear-gradient-2);}.cls-3{fill:url(#linear-gradient-3);}.cls-4{fill:url(#linear-gradient-4);}.cls-5{fill:url(#linear-gradient-5);}.cls-6{fill:url(#linear-gradient-6);}.cls-7{fill:url(#linear-gradient-7);}.cls-8{fill:url(#linear-gradient-8);}.cls-9{fill:url(#linear-gradient-9);}.cls-10{stroke:url(#linear-gradient-10);}</style><linearGradient id="linear-gradient" x1="124.86" y1="252.5" x2="370.14" y2="252.5" gradientUnits="userSpaceOnUse"><stop offset="0" stop-color="#5c59bf"/><stop offset="1" stop-color="#2679b8"/></linearGradient><linearGradient id="linear-gradient-2" x1="329.13" y1="197.58" x2="344.54" y2="197.58" xlink:href="#linear-gradient"/><linearGradient id="linear-gradient-3" x1="229.63" y1="288.69" x2="242.97" y2="288.69" xlink:href="#linear-gradient"/><linearGradient id="linear-gradient-4" x1="209.62" y1="218.63" x2="222.95" y2="218.63" xlink:href="#linear-gradient"/><linearGradient id="linear-gradient-5" x1="178.43" y1="347.19" x2="191.77" y2="347.19" xlink:href="#linear-gradient"/><linearGradient id="linear-gradient-6" x1="301.69" y1="246.65" x2="315.03" y2="246.65" xlink:href="#linear-gradient"/><linearGradient id="linear-gradient-7" x1="269.67" y1="188.61" x2="283" y2="188.61" xlink:href="#linear-gradient"/><linearGradient id="linear-gradient-8" x1="169.59" y1="288.69" x2="182.92" y2="288.69" xlink:href="#linear-gradient"/><linearGradient id="linear-gradient-9" x1="269.67" y1="248.65" x2="283" y2="248.65" xlink:href="#linear-gradient"/><linearGradient id="linear-gradient-10" x1="417.66" y1="-41.34" x2="665.02" y2="-41.34" gradientTransform="matrix(0.88, 0.12, 0.12, 0.88, -225.04, 225.04)" xlink:href="#linear-gradient"/></defs><title>MetaX Website Icons</title><polyline class="cls-1" points="370.14 370.14 129.86 370.14 129.86 129.86"/><circle class="cls-2" cx="336.84" cy="197.58" r="7.71"/><circle class="cls-3" cx="236.3" cy="288.69" r="6.67"/><circle class="cls-4" cx="216.29" cy="218.63" r="6.67"/><circle class="cls-5" cx="185.1" cy="347.19" r="6.67"/><circle class="cls-6" cx="308.36" cy="246.65" r="6.67"/><circle class="cls-7" cx="276.33" cy="188.61" r="6.67"/><circle class="cls-8" cx="176.25" cy="288.69" r="6.67"/><circle class="cls-9" cx="276.33" cy="248.65" r="6.67"/><line class="cls-10" x1="154.64" y1="345.36" x2="336.67" y2="163.33"/></svg>