<svg id="Layer_1" data-name="Layer 1" xmlns="http://www.w3.org/2000/svg" xmlns:xlink="http://www.w3.org/1999/xlink" viewBox="0 0 500 500"><defs><style>.cls-1,.cls-4{fill:none;stroke-miterlimit:10;stroke-width:10px;}.cls-1{stroke:url(#linear-gradient);}.cls-2{fill:url(#linear-gradient-2);}.cls-3{fill:url(#linear-gradient-3);}.cls-4{stroke:url(#linear-gradient-4);}</style><linearGradient id="linear-gradient" x1="180.43" y1="265.47" x2="316.07" y2="265.47" gradientUnits="userSpaceOnUse"><stop offset="0" stop-color="#5c59bf"/><stop offset="1" stop-color="#2679b8"/></linearGradient><linearGradient id="linear-gradient-2" x1="248.48" y1="272.94" x2="249.48" y2="272.94" xlink:href="#linear-gradient"/><linearGradient id="linear-gradient-3" x1="237.97" y1="260.5" x2="259.98" y2="260.5" xlink:href="#linear-gradient"/><linearGradient id="linear-gradient-4" x1="214.74" y1="190.14" x2="283.84" y2="190.14" xlink:href="#linear-gradient"/></defs><title>MetaX Website Icons</title><rect class="cls-1" x="185.43" y="212.43" width="125.63" height="106.08" rx="12" ry="12"/><path class="cls-2" d="M244,260.5v24.88c0,6.43,10,6.45,10,0V260.5c0-6.43-10-6.45-10,0h0Z"/><circle class="cls-3" cx="248.98" cy="260.5" r="11.01"/><path class="cls-4" d="M231.74,167.84h35.1a12,12,0,0,1,12,12v32.59a0,0,0,0,1,0,0h-59.1a0,0,0,0,1,0,0V179.84A12,12,0,0,1,231.74,167.84Z"/></svg>