<svg id="Layer_1" data-name="Layer 1" xmlns="http://www.w3.org/2000/svg" xmlns:xlink="http://www.w3.org/1999/xlink" viewBox="0 0 500 500"><defs><style>.cls-1,.cls-2,.cls-3,.cls-4{fill:none;stroke-miterlimit:10;stroke-width:10px;}.cls-1{stroke:url(#linear-gradient);}.cls-2{stroke:url(#linear-gradient-2);}.cls-3{stroke:url(#linear-gradient-3);}.cls-4{stroke:url(#linear-gradient-4);}</style><linearGradient id="linear-gradient" x1="239.63" y1="312.63" x2="249.63" y2="312.63" gradientUnits="userSpaceOnUse"><stop offset="0" stop-color="#5c59bf"/><stop offset="1" stop-color="#2679b8"/></linearGradient><linearGradient id="linear-gradient-2" x1="240.63" y1="153.13" x2="250.63" y2="153.13" xlink:href="#linear-gradient"/><linearGradient id="linear-gradient-3" x1="206.13" y1="233.03" x2="282.88" y2="233.03" xlink:href="#linear-gradient"/><linearGradient id="linear-gradient-4" x1="117.23" y1="232.49" x2="368.8" y2="232.49" xlink:href="#linear-gradient"/></defs><title>MetaX Website Icons</title><line class="cls-1" x1="244.63" y1="324.63" x2="244.63" y2="300.63"/><line class="cls-2" x1="245.63" y1="164.63" x2="245.63" y2="141.63"/><path class="cls-3" d="M277.55,174.84s-22.48-9.35-41-4.64c-11.51,2.93-22.29,12.53-22.5,31.17-0.21,18.39,19.62,25,29.33,27.91,12.66,3.75,34.49,9.16,34.49,39.65,0,20.48-21,27.74-32.27,28.08-9.74.3-18,1.4-37.17-8.62"/><circle class="cls-4" cx="243.02" cy="232.49" r="120.78"/></svg>