<svg id="Layer_1" data-name="Layer 1" xmlns="http://www.w3.org/2000/svg" xmlns:xlink="http://www.w3.org/1999/xlink" viewBox="0 0 500 500"><defs><style>.cls-1,.cls-10,.cls-11,.cls-12,.cls-13,.cls-14,.cls-2,.cls-3,.cls-5,.cls-7,.cls-8,.cls-9{fill:none;stroke-miterlimit:10;}.cls-1,.cls-10,.cls-2,.cls-3,.cls-5,.cls-7,.cls-8,.cls-9{stroke-width:10px;}.cls-1{stroke:url(#linear-gradient);}.cls-2{stroke:url(#linear-gradient-2);}.cls-3{stroke:url(#linear-gradient-3);}.cls-4{fill:url(#linear-gradient-4);}.cls-5{stroke:url(#linear-gradient-5);}.cls-6{fill:url(#linear-gradient-6);}.cls-7{stroke:url(#linear-gradient-7);}.cls-8{stroke:url(#linear-gradient-8);}.cls-9{stroke:url(#linear-gradient-9);}.cls-10{stroke:url(#linear-gradient-10);}.cls-11,.cls-12,.cls-13,.cls-14{stroke-width:5px;}.cls-11{stroke:url(#linear-gradient-11);}.cls-12{stroke:url(#linear-gradient-12);}.cls-13{stroke:url(#linear-gradient-13);}.cls-14{stroke:url(#linear-gradient-14);}</style><linearGradient id="linear-gradient" x1="150.87" y1="312.89" x2="210.16" y2="312.89" gradientUnits="userSpaceOnUse"><stop offset="0" stop-color="#5c59bf"/><stop offset="1" stop-color="#2679b8"/></linearGradient><linearGradient id="linear-gradient-2" x1="93.04" y1="232.39" x2="263.24" y2="232.39" xlink:href="#linear-gradient"/><linearGradient id="linear-gradient-3" x1="95.56" y1="290.12" x2="263.24" y2="290.12" xlink:href="#linear-gradient"/><linearGradient id="linear-gradient-4" x1="140.45" y1="330.64" x2="222.11" y2="330.64" xlink:href="#linear-gradient"/><linearGradient id="linear-gradient-5" x1="152.18" y1="224.63" x2="208.26" y2="224.63" xlink:href="#linear-gradient"/><linearGradient id="linear-gradient-6" x1="-950.04" y1="284.9" x2="-940.48" y2="284.9" gradientTransform="translate(-781.3 -0.37) rotate(-150)" xlink:href="#linear-gradient"/><linearGradient id="linear-gradient-7" x1="323.99" y1="249.19" x2="333.99" y2="249.19" xlink:href="#linear-gradient"/><linearGradient id="linear-gradient-8" x1="400.21" y1="250" x2="410.21" y2="250" xlink:href="#linear-gradient"/><linearGradient id="linear-gradient-9" x1="323.99" y1="205.89" x2="410.21" y2="205.89" xlink:href="#linear-gradient"/><linearGradient id="linear-gradient-10" x1="323.99" y1="292.48" x2="410.21" y2="292.48" xlink:href="#linear-gradient"/><linearGradient id="linear-gradient-11" x1="154.99" y1="330.57" x2="168.52" y2="330.57" gradientTransform="translate(-19.94 398.75) rotate(-90)" xlink:href="#linear-gradient"/><linearGradient id="linear-gradient-12" x1="153.88" y1="313.02" x2="158.88" y2="313.02" gradientTransform="translate(-19.94 398.75) rotate(-90)" xlink:href="#linear-gradient"/><linearGradient id="linear-gradient-13" x1="168.73" y1="338.9" x2="182.26" y2="338.9" gradientTransform="translate(614.11 79.56) rotate(90)" xlink:href="#linear-gradient"/><linearGradient id="linear-gradient-14" x1="167.62" y1="321.35" x2="172.62" y2="321.35" gradientTransform="translate(614.11 79.56) rotate(90)" xlink:href="#linear-gradient"/></defs><title>MetaX Website Icons</title><rect class="cls-1" x="155.87" y="304.15" width="49.29" height="17.49"/><rect class="cls-2" x="98.04" y="162.16" width="160.2" height="140.46" rx="24.99" ry="24.99"/><path class="cls-3" d="M100.56,277.62H258.24a0,0,0,0,1,0,0v0a25,25,0,0,1-25,25H125.56a25,25,0,0,1-25-25v0A0,0,0,0,1,100.56,277.62Z"/><rect class="cls-4" x="140.45" y="326.27" width="81.66" height="8.74"/><circle class="cls-5" cx="180.22" cy="224.63" r="23.04"/><polygon class="cls-6" points="185.98 224.34 177.7 229.12 177.7 219.55 185.98 224.34"/><line class="cls-7" x1="328.99" y1="205.89" x2="328.99" y2="292.48"/><line class="cls-8" x1="405.21" y1="207.52" x2="405.21" y2="292.48"/><ellipse class="cls-9" cx="367.1" cy="205.89" rx="38.11" ry="16.54"/><ellipse class="cls-10" cx="367.1" cy="292.48" rx="38.11" ry="16.54"/><line class="cls-11" x1="315.63" y1="241.99" x2="305.63" y2="231.99"/><line class="cls-12" x1="268.67" y1="242.37" x2="317.51" y2="242.37"/><line class="cls-13" x1="270.21" y1="250.06" x2="280.21" y2="260.06"/><line class="cls-14" x1="317.18" y1="249.68" x2="268.34" y2="249.68"/></svg>