<?xml version="1.0" encoding="UTF-8"?>
<svg width="186px" height="210px" viewBox="0 0 186 210" version="1.1" xmlns="http://www.w3.org/2000/svg" xmlns:xlink="http://www.w3.org/1999/xlink">
    <!-- Generator: Sketch 44 (41411) - http://www.bohemiancoding.com/sketch -->
    <title>Group</title>
    <desc>Created with Sketch.</desc>
    <defs>
        <linearGradient x1="0%" y1="50%" x2="100%" y2="50%" id="linearGradient-1">
            <stop stop-color="#0071BC" offset="0%"></stop>
            <stop stop-color="#662D91" offset="100%"></stop>
        </linearGradient>
    </defs>
    <g id="Page-1" stroke="none" stroke-width="1" fill="none" fill-rule="evenodd">
        <g id="Team" transform="translate(-52.000000, -282.000000)" stroke="url(#linearGradient-1)" stroke-width="3" fill="#FAFAFA">
            <g id="Group" transform="translate(40.000000, 282.000000)">
                <path d="M112.5,4.33012702 L188.432667,48.169873 L188.432667,48.169873 C193.073684,50.8493649 195.932667,55.8012702 195.932667,61.160254 L195.932667,148.839746 L195.932667,148.839746 C195.932667,154.19873 193.073684,159.150635 188.432667,161.830127 L112.5,205.669873 L112.5,205.669873 C107.858984,208.349365 102.141016,208.349365 97.5,205.669873 L21.5673326,161.830127 L21.5673326,161.830127 C16.9263165,159.150635 14.0673326,154.19873 14.0673326,148.839746 L14.0673326,61.160254 L14.0673326,61.160254 C14.0673326,55.8012702 16.9263165,50.8493649 21.5673326,48.169873 L97.5,4.33012702 L97.5,4.33012702 C102.141016,1.65063509 107.858984,1.65063509 112.5,4.33012702 Z" id="Polygon"></path>
            </g>
        </g>
    </g>
</svg>