<?xml version="1.0" encoding="UTF-8"?>
<svg width="186px" height="210px" viewBox="0 0 186 210" version="1.1" xmlns="http://www.w3.org/2000/svg" xmlns:xlink="http://www.w3.org/1999/xlink">
    <!-- Generator: Sketch 44 (41411) - http://www.bohemiancoding.com/sketch -->
    <title>Group</title>
    <desc>Created with Sketch.</desc>
    <defs>
        <linearGradient x1="0%" y1="50%" x2="100%" y2="50%" id="linearGradient-1">
            <stop stop-color="#0071BC" offset="0%"></stop>
            <stop stop-color="#662D91" offset="100%"></stop>
        </linearGradient>
    </defs>
    <g id="Page-1" stroke="none" stroke-width="1" fill="none" fill-rule="evenodd">
        <g id="Team" transform="translate(-52.000000, -282.000000)" stroke="url(#linearGradient-1)" stroke-width="3" fill="#FAFAFA">
            <g id="Group" transform="translate(40.000000, 282.000000)">
                <path d="M112.5,4.33012702 L188.432667,48.169873 L188.432667,48.169873 C193.073684,50.8493649 195.932667,55.8012702 195.932667,61.160254 L195.932667,148.839746 L195.932667,148.839746 C195.932667,154.19873 193.073684,159.150635 188.432667,161.830127 L112.5,205.669873 L112.5,205.669873 C107.858984,208.349365 102.141016,208.349365 97.5,205.669873 L21.5673326,161.830127 L21.5673326,161.830127 C16.9263165,159.150635 14.0673326,154.19873 14.0673326,148.839746 L14.0673326,61.160254 L14.0673326,61.160254 C14.0673326,55.8012702 16.9263165,50.8493649 21.5673326,48.169873 L97.5,4.33012702 L97.5,4.33012702 C102.141016,1.65063509 107.858984,1.65063509 112.5,4.33012702 Z" id="Polygon"></path>
                <path d="M112,14.0414519 L180.272413,53.4585481 L180.272413,53.4585481 C184.604028,55.9594072 187.272413,60.5811855 187.272413,65.5829038 L187.272413,144.417096 L187.272413,144.417096 C187.272413,149.418814 184.604028,154.040593 180.272413,156.541452 L112,195.958548 L112,195.958548 C107.668385,198.459407 102.331615,198.459407 98,195.958548 L29.7275866,156.541452 L29.7275866,156.541452 C25.3959716,154.040593 22.7275866,149.418814 22.7275866,144.417096 L22.7275866,65.5829038 L22.7275866,65.5829038 C22.7275866,60.5811855 25.3959716,55.9594072 29.7275866,53.4585481 L98,14.0414519 L98,14.0414519 C102.331615,11.5405928 107.668385,11.5405928 112,14.0414519 Z" id="Polygon"></path>
            </g>
        </g>
    </g>
</svg>