<?xml version="1.0" encoding="UTF-8"?>
<svg width="402px" height="181px" viewBox="0 0 402 181" version="1.1" xmlns="http://www.w3.org/2000/svg" xmlns:xlink="http://www.w3.org/1999/xlink">
    <!-- Generator: Sketch 52.4 (67378) - http://www.bohemiancoding.com/sketch -->
    <title>adToken_Logo_Colored Words</title>
    <desc>Created with Sketch.</desc>
    <defs>
        <linearGradient x1="0.174855625%" y1="24.6635989%" x2="99.8424492%" y2="75.320254%" id="linearGradient-1">
            <stop stop-color="#0071BC" offset="0%"></stop>
            <stop stop-color="#662D91" offset="100%"></stop>
        </linearGradient>
        <linearGradient x1="0.891232364%" y1="24.9719349%" x2="99.1313778%" y2="75.0152024%" id="linearGradient-2">
            <stop stop-color="#0071BC" offset="0%"></stop>
            <stop stop-color="#662D91" offset="100%"></stop>
        </linearGradient>
    </defs>
    <g id="MetaX-Style-Guide" stroke="none" stroke-width="1" fill="none" fill-rule="evenodd">
        <g id="Color-Palette" transform="translate(-251.000000, -936.000000)">
            <g id="adToken_Logo_Colored-Words" transform="translate(254.000000, 939.000000)">
                <g id="adToken_Logo_Colored">
                    <g id="Group-2">
                        <text id="adToken" fill="#1E4DA7" font-family="Serifa-Roman, Serifa" font-size="82" font-weight="normal" letter-spacing="-8.20000005">
                            <tspan x="164.5" y="108">adToken</tspan>
                        </text>
                        <path d="M150.227581,41.2514041 L82.771101,2.26370687 C79.8239732,0.578764376 76.1751483,0.578764376 73.2280205,2.26370687 L5.77154022,41.2514041 C2.82441244,42.9363466 1,46.1190158 1,49.5357047 L1,127.464295 C1,130.880984 2.82441244,134.016849 5.77154022,135.748596 L73.2280205,174.736293 C76.1751483,176.421236 79.8239732,176.421236 82.771101,174.736293 L150.227581,135.748596 C153.174709,134.063653 154.999122,130.880984 154.999122,127.464295 L154.999122,49.4889008 C155.045901,46.1190158 153.221489,42.9363466 150.227581,41.2514041 Z" id="Path" fill="#FAFAFA"></path>
                        <path d="M149.274361,40.2406417 L81.7711009,1.26336898 C78.8239731,-0.421122995 75.1751483,-0.421122995 72.2280205,1.26336898 L4.77154021,40.2406417 C1.82441243,41.9251337 0,45.1069519 0,48.5227273 L0,126.477273 C0,129.893048 1.82441243,133.028075 4.77154021,134.759358 L72.2280205,173.736631 C75.1751483,175.421123 78.8239731,175.421123 81.7711009,173.736631 L149.227581,134.759358 C152.174709,133.074866 153.999121,129.893048 153.999121,126.477273 L153.999121,48.5227273 C154.045901,45.1069519 152.221489,41.9251337 149.274361,40.2406417 Z" id="Path_1_" stroke="url(#linearGradient-1)" stroke-width="4.68359146"></path>
                        <path d="M142.272484,44.2557522 L81.7509194,9.26637168 C78.84888,7.57787611 75.2447342,7.57787611 72.2958877,9.26637168 L11.7275159,44.2557522 C8.82547643,45.9442478 7,49.0867257 7,52.4168142 L7,122.489381 C7,125.866372 8.77866934,129.00885 11.7275159,130.697345 L72.2490806,165.733628 C75.15112,167.422124 78.7552658,167.422124 81.7041123,165.733628 L142.272484,130.697345 C145.174524,129.00885 147,125.866372 147,122.489381 L147,52.4637168 C147,49.0867257 145.221331,45.9442478 142.272484,44.2557522 Z" id="Path_2_" fill="url(#linearGradient-2)"></path>
                        <g id="x" transform="translate(33.000000, 44.000000)" fill="#FFFFFF">
                            <polygon id="Rectangle" points="65.7191489 83.1319149 70.1191489 78.7319149 74.5191489 83.1319149 70.1191489 87.5319149"></polygon>
                            <g id="Group" transform="translate(19.620970, 52.454486)">
                                <polygon id="Path_3_" points="43.8595745 28.6468085 48.212766 24.1531915 43.8595745 19.8 39.4595745 24.1531915"></polygon>
                                <polygon id="Path_4_" points="37.4 22.0468085 41.7531915 17.693617 37.4 13.293617 33 17.693617"></polygon>
                                <polygon id="Path_5_" points="30.8 15.4 35.2 11.093617 30.8 6.74042553 26.4468085 11.093617"></polygon>
                                <polygon id="Path_6_" points="24.1531915 21.6255319 28.5531915 17.2255319 24.1531915 12.9191489 19.893617 17.2255319"></polygon>
                                <polygon id="Path_7_" points="4.63404255 28.6468085 9.03404255 24.1531915 4.63404255 19.8 0.187234043 24.1531915"></polygon>
                                <polygon id="Path_8_" points="11.093617 22.0468085 15.493617 17.693617 11.093617 13.293617 6.83404255 17.693617"></polygon>
                                <polygon id="Path_9_" points="17.787234 6.74042553 13.387234 11.093617 17.787234 15.4 22.0468085 11.093617"></polygon>
                                <polygon id="Path_10_" points="19.893617 4.63404255 24.1531915 8.94042553 28.5531915 4.63404255 24.1531915 0.0936170213"></polygon>
                            </g>
                            <polygon id="Rectangle_1_" points="78.7787234 83.1319149 83.1319149 78.7787234 87.5319149 83.1319149 83.1319149 87.5319149"></polygon>
                            <polygon id="Rectangle_2_" points="72.3191489 76.4851064 76.6723404 72.1319149 81.0723404 76.4851064 76.6723404 80.8851064"></polygon>
                            <polygon id="Rectangle_3_" points="65.7191489 70.1191489 70.1191489 65.7191489 74.5191489 70.1191489 70.1191489 74.4723404"></polygon>
                            <polygon id="Rectangle_4_" points="78.7787234 70.1191489 83.1787234 65.7191489 87.5319149 70.1191489 83.1787234 74.5191489"></polygon>
                            <g id="Group_1_" transform="translate(52.454486, 19.620970)">
                                <polygon id="Path_11_" points="24.0595745 48.212766 28.5531915 43.9531915 24.0595745 39.5531915 19.706383 43.9531915"></polygon>
                                <polygon id="Path_12_" points="17.6 41.7531915 21.9531915 37.493617 17.6 32.906383 13.293617 37.493617"></polygon>
                                <polygon id="Path_13_" points="11.0468085 35.2 15.4 30.8 11.0468085 26.5404255 6.64680851 30.8"></polygon>
                                <polygon id="Path_14_" points="17.2255319 28.6468085 21.5319149 24.2468085 17.2255319 19.893617 12.8255319 24.2468085"></polygon>
                                <polygon id="Path_15_" points="4.54042553 28.6468085 8.94042553 24.2468085 4.54042553 19.893617 0.187234043 24.2468085"></polygon>
                                <polygon id="Path_16_" points="11.0468085 22.1404255 15.4 17.787234 11.0468085 13.387234 6.64680851 17.787234"></polygon>
                                <polygon id="Path_17_" points="17.6 15.587234 21.9531915 11.187234 17.6 6.83404255 13.293617 11.187234"></polygon>
                                <polygon id="Path_18_" points="19.706383 4.54042553 24.0595745 9.12765957 28.5531915 4.54042553 24.0595745 0.280851064"></polygon>
                            </g>
                            <polygon id="Rectangle_5_" points="0.280851064 83.1787234 4.68085106 78.7787234 9.03404255 83.1787234 4.68085106 87.5787234"></polygon>
                            <polygon id="Rectangle_6_" points="13.293617 83.1787234 17.693617 78.7787234 22.093617 83.1787234 17.693617 87.5787234"></polygon>
                            <polygon id="Rectangle_7_" points="6.69361702 76.6255319 11.0468085 72.2255319 15.4468085 76.6255319 11.0468085 81.0255319"></polygon>
                            <polygon id="Rectangle_8_" points="0.280851064 70.1659574 4.68085106 65.7659574 9.03404255 70.1659574 4.68085106 74.5191489"></polygon>
                            <polygon id="Rectangle_9_" points="13.293617 70.1659574 17.693617 65.7659574 22.093617 70.1659574 17.693617 74.5191489"></polygon>
                            <g id="Group_2_" transform="translate(6.384295, 19.620970)">
                                <polygon id="Path_19_" points="4.72765957 48.212766 9.03404255 43.9531915 4.72765957 39.5531915 0.374468085 43.9531915"></polygon>
                                <polygon id="Path_20_" points="11.3276596 41.7531915 15.6808511 37.493617 11.3276596 32.906383 6.92765957 37.493617"></polygon>
                                <polygon id="Path_21_" points="17.8808511 35.2 22.2340426 30.8 17.8808511 26.5404255 13.387234 30.8"></polygon>
                                <polygon id="Path_22_" points="24.3404255 28.6468085 28.7404255 24.2468085 24.3404255 19.893617 20.0808511 24.2468085"></polygon>
                                <polygon id="Path_23_" points="11.3276596 28.6468085 15.6808511 24.2468085 11.3276596 19.893617 6.92765957 24.2468085"></polygon>
                                <polygon id="Path_24_" points="17.8808511 22.1404255 22.2340426 17.787234 17.8808511 13.387234 13.387234 17.787234"></polygon>
                                <polygon id="Path_25_" points="11.3276596 15.587234 15.6808511 11.187234 11.3276596 6.83404255 6.92765957 11.187234"></polygon>
                                <polygon id="Path_26_" points="0.374468085 4.54042553 4.72765957 9.12765957 9.03404255 4.54042553 4.72765957 0.280851064"></polygon>
                            </g>
                            <polygon id="Rectangle_10_" points="0.280851064 17.787234 4.68085106 13.387234 9.08085106 17.787234 4.68085106 22.187234"></polygon>
                            <polygon id="Rectangle_11_" points="13.3404255 17.787234 17.7404255 13.387234 22.093617 17.787234 17.7404255 22.187234"></polygon>
                            <polygon id="Rectangle_12_" points="6.69361702 11.093617 11.093617 6.69361702 15.493617 11.093617 11.093617 15.493617"></polygon>
                            <polygon id="Rectangle_13_" points="0.327659574 4.77446809 4.68085106 0.374468085 9.08085106 4.77446809 4.68085106 9.12765957"></polygon>
                            <g id="Group_3_" transform="translate(19.620970, 6.852380)">
                                <polygon id="Path_27_" points="17.787234 21.8595745 22.0468085 17.3191489 17.787234 13.012766 13.387234 17.3191489"></polygon>
                                <polygon id="Path_28_" points="11.093617 15.212766 15.493617 10.9531915 11.093617 6.55319149 6.83404255 10.9531915"></polygon>
                                <polygon id="Path_29_" points="4.63404255 8.65957447 9.03404255 4.25957447 4.63404255 0 0.187234043 4.25957447"></polygon>
                                <polygon id="Path_30_" points="24.1531915 28.3659574 28.5531915 23.9659574 24.1531915 19.612766 19.893617 23.9659574"></polygon>
                                <polygon id="Path_31_" points="24.1531915 7.0212766 19.893617 11.2808511 24.1531915 15.6808511 28.5531915 11.2808511"></polygon>
                                <polygon id="Path_32_" points="30.8 21.8595745 35.2 17.3191489 30.8 13.012766 26.4468085 17.3191489"></polygon>
                                <polygon id="Path_33_" points="37.4 15.212766 41.7531915 10.9531915 37.4 6.55319149 33 10.9531915"></polygon>
                                <polygon id="Path_34_" points="39.4595745 4.25957447 43.8595745 8.65957447 48.212766 4.25957447 43.8595745 0"></polygon>
                            </g>
                            <polygon id="Rectangle_14_" points="13.387234 4.68085106 17.787234 0.327659574 22.187234 4.68085106 17.787234 9.08085106"></polygon>
                            <polygon id="Rectangle_15_" points="65.7659574 17.7404255 70.1659574 13.3404255 74.5191489 17.7404255 70.1659574 22.1404255"></polygon>
                            <polygon id="Rectangle_16_" points="78.7787234 17.7404255 83.1787234 13.387234 87.5787234 17.7404255 83.1787234 22.1404255"></polygon>
                            <polygon id="Rectangle_17_" points="72.3191489 11.093617 76.7191489 6.74042553 81.0723404 11.093617 76.7191489 15.493617"></polygon>
                            <polygon id="Rectangle_18_" points="65.7659574 4.72765957 70.1659574 0.327659574 74.5191489 4.72765957 70.1659574 9.08085106"></polygon>
                            <polygon id="Rectangle_19_" points="78.7787234 4.72765957 83.1787234 0.327659574 87.5787234 4.72765957 83.1787234 9.12765957"></polygon>
                        </g>
                    </g>
                </g>
            </g>
        </g>
    </g>
</svg>
