<svg id="Layer_1" data-name="Layer 1" xmlns="http://www.w3.org/2000/svg" viewBox="0 0 100 100"><defs><style>.cls-1{fill:none;}.cls-1,.cls-2{stroke:#c62828;stroke-miterlimit:10;stroke-width:2px;}.cls-2{fill:#f5f5f5;}</style></defs><title>adtoken icons</title><path class="cls-1" d="M39.74,63.6a1.87,1.87,0,0,0-2.55.68h0a1.87,1.87,0,0,1-2.55.68h0A1.87,1.87,0,0,1,34,62.42l1.87-3.23L37.69,56a1.87,1.87,0,0,1,2.55-.68h0a1.87,1.87,0,0,1,.68,2.55h0a1.87,1.87,0,0,0,.68,2.55L60.26,71.15a1.87,1.87,0,0,0,2.55-.68h0a1.87,1.87,0,0,1,2.55-.68h0A1.87,1.87,0,0,1,66,72.33l-1.87,3.23-1.87,3.23a1.87,1.87,0,0,1-2.55.68h0A1.87,1.87,0,0,1,59,76.93l0,0a1.87,1.87,0,0,0-.69-2.53Z"/><path class="cls-2" d="M41.6,75a1.87,1.87,0,0,0-.68,2.55h0a1.87,1.87,0,0,1-.68,2.55h0a1.87,1.87,0,0,1-2.55-.68l-1.87-3.23L34,72.95a1.87,1.87,0,0,1,.68-2.55h0a1.87,1.87,0,0,1,2.55.68h0a1.87,1.87,0,0,0,2.55.68L58.4,61a1.87,1.87,0,0,0,.68-2.55h0a1.87,1.87,0,0,1,.68-2.55h0a1.87,1.87,0,0,1,2.55.68l1.87,3.23L66,63a1.87,1.87,0,0,1-.68,2.55h0a1.87,1.87,0,0,1-2.54-.66l0,0a1.87,1.87,0,0,0-2.54-.66Z"/><path class="cls-1" d="M46.77,52.58c-1.64-.16-2.57-0.95-2.56-2.59a4.34,4.34,0,0,0-2.61-4.08c-1.33-.72-2.66-1.46-4-2.15-2.76-1.42-3.89-4-2.74-6.91a7.32,7.32,0,0,0,.28-4.74,8.56,8.56,0,0,1,3-8.92c3.5-3.07,7.74-4,12.25-3.84a17,17,0,0,1,9,2.75c3.92,2.61,5.34,6.18,4.22,10.74a5.21,5.21,0,0,0,.27,3.48c1.4,3.25.35,5.93-2.81,7.57-1.59.83-3.15,1.72-4.68,2.64a3.17,3.17,0,0,0-1.6,2.65c-0.18,2.71-.81,3.29-3.53,3.45-0.6,0-1.2,0-1.8,0A25.92,25.92,0,0,1,46.77,52.58ZM47.64,37a4.45,4.45,0,0,0-4.35-4.59A4.58,4.58,0,1,0,47.64,37Zm8.15,4.57a4.58,4.58,0,0,0-.1-9.15A4.58,4.58,0,0,0,55.79,41.53Zm-4.3,2.81c-0.26-.48-0.6-0.9-0.89-1.37a1.28,1.28,0,0,0-2.17,0L47.7,44.16a2.08,2.08,0,0,0,.17,2.79c0.23,0.3.44,0.47,0.82,0.2a1.38,1.38,0,0,1,1.59,0,0.62,0.62,0,0,0,.59,0A2.38,2.38,0,0,0,51.49,44.34Z"/></svg>