<svg id="Layer_1" data-name="Layer 1" xmlns="http://www.w3.org/2000/svg" viewBox="0 0 100 100"><defs><style>.cls-1{fill:none;stroke:#c62828;stroke-miterlimit:10;stroke-width:2px;}</style></defs><title>adtoken icons</title><path class="cls-1" d="M23,77a1.91,1.91,0,0,1-2.74-2.14l7.05-28.6C36.8,7.84,63.72,8.17,73,46.85l6.6,27.6a1.91,1.91,0,0,1-2.87,2.06l-6.63-4.18a1.91,1.91,0,0,0-2.28.18L61.58,78a1.91,1.91,0,0,1-2.39.1l-7-5.16a1.91,1.91,0,0,0-2.25,0l-7.3,5.26a1.91,1.91,0,0,1-2.26,0l-7-5.32a1.91,1.91,0,0,0-2-.17Z"/><circle class="cls-1" cx="43.06" cy="42.76" r="4.34"/><circle class="cls-1" cx="56.56" cy="42.76" r="4.34"/></svg>