<svg id="Layer_1" data-name="Layer 1" xmlns="http://www.w3.org/2000/svg" viewBox="0 0 100 100"><defs><style>.cls-1{fill:#2196f3;}</style></defs><title>adtoken icons</title><path class="cls-1" d="M30.74,32.14L34.14,28l0.49,0.61a0.9,0.9,0,0,0,1.32.19,0.87,0.87,0,0,0,.49-1c-0.09-.88-0.08-0.89.78-1,1.11-.1,2.21-0.16,3.31-0.3,0.62-.08.9,0.09,0.86,0.73a0.91,0.91,0,0,0,.8,1.08,0.77,0.77,0,0,0,1-.32c0.16-.26.35-0.51,0.48-0.7l4,3.41-0.65.55A0.75,0.75,0,0,0,47,32.35,0.94,0.94,0,0,0,48.1,33c0.83-.11.84-0.08,0.91,0.77q0.15,1.66.29,3.32c0.07,0.8.07,0.81-.76,0.87a0.9,0.9,0,0,0-1,.67A0.92,0.92,0,0,0,48,39.86c0.21,0.13.41,0.28,0.53,0.36l-3.41,4.05a5.87,5.87,0,0,0-.36-0.52,0.94,0.94,0,0,0-1.37-.2,0.87,0.87,0,0,0-.46,1.05c0.08,0.85.07,0.86-.76,0.93-1.13.1-2.25,0.17-3.38,0.31-0.59.07-.86-0.1-0.83-0.7A0.94,0.94,0,0,0,37.1,44a0.74,0.74,0,0,0-1,.31c-0.17.28-.35,0.55-0.52,0.81l-3.92-3.36,0.37-.47c0.64-.77.67-0.86,0.07-1.67a1,1,0,0,0-.74-0.22c-1,0-1,.06-1.08-0.93l-0.26-2.95c-0.09-1-.09-1,0.89-1.1a0.83,0.83,0,0,0,.83-0.63,0.92,0.92,0,0,0-.42-1.32ZM36,42.37a15.25,15.25,0,0,0,2.12.69,0.87,0.87,0,0,1,.9,1c0,0.27,0,.55.43,0.51,0.63-.06,1.27-0.1,1.9-0.18a0.48,0.48,0,0,0,.3-0.35c-0.28-.94.27-1.28,1-1.49a1,1,0,0,0,.43-0.23,1.19,1.19,0,0,1,2,.09s0.08,0,.06,0l1.63-1.93-0.9-.81a14.55,14.55,0,0,0,.63-1.95,0.86,0.86,0,0,1,1-.91c0.42,0,.59-0.18.52-0.61S48,35.41,48,35c-0.07-.84-0.08-0.82-0.9-0.8A0.85,0.85,0,0,1,46.4,34c-0.42-.74-0.78-1.52-1.17-2.33l0.72-.91L44,29a4.59,4.59,0,0,1-.6.65,0.8,0.8,0,0,1-.6.16c-0.69-.18-1.37-0.4-2-0.64a0.67,0.67,0,0,1-.38-0.39c-0.27-1.06-.25-1.06-1.33-1a5.28,5.28,0,0,1-.68.05c-0.6,0-.79.23-0.7,0.82a0.86,0.86,0,0,1-.22.72c-0.74.43-1.52,0.78-2.35,1.18L34.24,30l-1.67,2a2.88,2.88,0,0,0,.42.37,0.68,0.68,0,0,1,.25,1.06A16.13,16.13,0,0,0,32.7,35a0.83,0.83,0,0,1-.39.45,2.7,2.7,0,0,0-1,.31,2.13,2.13,0,0,0,0,1.08c0,0.21.06,0.41,0,.61,0,0.58.2,0.85,0.8,0.7a0.65,0.65,0,0,1,.9.55,2.58,2.58,0,0,0,.52,1,1.08,1.08,0,0,1-.12,1.78,0.13,0.13,0,0,0,0,.11l2,1.68Z"/><path class="cls-1" d="M43.45,35.91a3.79,3.79,0,1,1-4.07-3.5A3.79,3.79,0,0,1,43.45,35.91Zm-4-2.31a2.6,2.6,0,1,0,2.82,2.35A2.66,2.66,0,0,0,39.44,33.6Z"/><g id="obcAv0.tif"><path class="cls-1" d="M48,41.71l7.45-7.53,0.87,1.29c0.68,1,1.43,1.1,2.58.6a1.73,1.73,0,0,0,1.16-2c0-1.77,0-1.77,1.72-1.77,2.21,0,4.42.06,6.62,0,1.23,0,1.77.34,1.58,1.59a1.82,1.82,0,0,0,1.41,2.28,1.54,1.54,0,0,0,2.09-.46c0.36-.49.78-0.94,1.07-1.3l7.43,7.45-1.38,1c-0.8.56-.79,1.17-0.46,2.08a1.86,1.86,0,0,0,2.15,1.43c1.67-.07,1.68,0,1.68,1.68q0,3.31,0,6.62c0,1.59,0,1.61-1.65,1.6A1.79,1.79,0,0,0,80.2,57.4c-0.48,1.16-.37,1.89.6,2.59,0.4,0.28.76,0.62,1,.81l-7.45,7.45a11.68,11.68,0,0,0-.62-1.1C73,66.13,72.23,66,71,66.53a1.73,1.73,0,0,0-1.09,2c0,1.71,0,1.71-1.67,1.71-2.25,0-4.5-.05-6.75,0-1.17,0-1.68-.34-1.52-1.53a1.88,1.88,0,0,0-1.47-2.36,1.48,1.48,0,0,0-2,.44c-0.39.52-.8,1-1.18,1.52L48.19,61c0.21-.23.51-0.55,0.82-0.87,1.41-1.41,1.48-1.59.43-3.29A2,2,0,0,0,48,56.28c-2-.09-2-0.06-2-2s0-3.93,0-5.89,0-2,2-2a1.65,1.65,0,0,0,1.75-1.11,1.83,1.83,0,0,0-.61-2.68Zm8.7,21.2a30.36,30.36,0,0,0,4.08,1.73c1.27,0.33,1.79.9,1.6,2.19-0.08.53,0,1.1,0.77,1.09,1.27,0,2.54,0,3.8,0a1,1,0,0,0,.65-0.64c-0.38-1.92.76-2.49,2.31-2.78a2,2,0,0,0,.9-0.37c1.51-1.25,2.8-1,3.92.52,0,0,.15,0,0.12,0l3.56-3.55L76.73,59.3a29,29,0,0,0,1.59-3.76c0.33-1.22.83-1.85,2.16-1.63,0.83,0.14,1.19-.25,1.14-1.11s0-1.64,0-2.45c0-1.67,0-1.64-1.65-1.74A1.69,1.69,0,0,1,78.71,48c-0.71-1.54-1.27-3.15-1.93-4.83l1.58-1.68L74.8,37.86A9.13,9.13,0,0,1,73.5,39a1.6,1.6,0,0,1-1.21.21c-1.34-.47-2.65-1-3.94-1.62a1.33,1.33,0,0,1-.69-0.83c-0.34-2.14-.32-2.15-2.48-2.15a10.51,10.51,0,0,1-1.35,0c-1.18-.15-1.61.32-1.54,1.51a1.71,1.71,0,0,1-.55,1.39c-1.54.73-3.16,1.28-4.86,1.94L55.29,38l-3.65,3.6a5.74,5.74,0,0,0,.76.8c0.85,0.63.86,1.22,0.31,2.14a32.11,32.11,0,0,0-1.36,3.26,1.65,1.65,0,0,1-.85.83c-0.66.22-1.68,0-2,.44s-0.15,1.4-.17,2.14c0,0.41,0,.82,0,1.23-0.14,1.14.25,1.72,1.47,1.53a1.29,1.29,0,0,1,1.68,1.24,5.14,5.14,0,0,0,.84,2.15c1.07,1.42.88,2.53-.54,3.51a0.25,0.25,0,0,0-.11.22l3.58,3.67Z"/><path class="cls-1" d="M72.53,51.37a7.55,7.55,0,1,1-7.47-7.64A7.53,7.53,0,0,1,72.53,51.37ZM65,46.11a5.18,5.18,0,1,0,5.18,5.14A5.29,5.29,0,0,0,65,46.11Z"/></g><g id="obcAv0.tif-2" data-name="obcAv0.tif"><path class="cls-1" d="M20.38,52l5.87-4.9,0.53,1a1.3,1.3,0,0,0,1.81.61,1.25,1.25,0,0,0,1-1.33c0.1-1.27.12-1.27,1.36-1.16,1.59,0.15,3.17.35,4.76,0.43,0.89,0,1.25.37,1,1.25a1.31,1.31,0,0,0,.86,1.73,1.11,1.11,0,0,0,1.53-.19c0.29-.33.62-0.63,0.86-0.86l4.83,5.86-1.06.6a1.08,1.08,0,0,0-.47,1.47,1.35,1.35,0,0,0,1.45,1.17c1.21,0.06,1.21.11,1.09,1.32q-0.22,2.38-.45,4.76c-0.11,1.14-.12,1.16-1.3,1a1.29,1.29,0,0,0-1.58.69,1.32,1.32,0,0,0,.26,1.9c0.27,0.23.5,0.5,0.65,0.65l-5.86,4.85A8.43,8.43,0,0,0,37.14,72a1.34,1.34,0,0,0-1.88-.63,1.25,1.25,0,0,0-.92,1.37C34.22,74,34.21,74,33,73.85c-1.62-.15-3.23-0.35-4.85-0.44-0.85-.05-1.19-0.36-1-1.2a1.35,1.35,0,0,0-.89-1.79,1.07,1.07,0,0,0-1.46.18c-0.31.35-.64,0.68-0.95,1l-4.67-5.77c0.17-.15.4-0.36,0.65-0.57,1.11-.92,1.17-1,0.53-2.33a1.44,1.44,0,0,0-1-.5c-1.42-.2-1.42-0.18-1.29-1.6l0.4-4.23c0.14-1.44.14-1.47,1.55-1.32a1.19,1.19,0,0,0,1.33-.68,1.32,1.32,0,0,0-.26-2Zm4.8,15.82A21.91,21.91,0,0,0,28,69.3,1.25,1.25,0,0,1,29,71c-0.09.38-.1,0.79,0.48,0.84C30.39,71.9,31.3,72,32.21,72a0.69,0.69,0,0,0,.51-0.42c-0.15-1.41.72-1.74,1.85-1.84a1.46,1.46,0,0,0,.67-0.21,1.71,1.71,0,0,1,2.78.64s0.11,0,.08,0l2.8-2.31-1.07-1.38A20.9,20.9,0,0,0,41.24,64c0.32-.86.72-1.28,1.67-1,0.59,0.16.88-.1,0.9-0.72s0.11-1.18.16-1.76c0.11-1.2.11-1.18-1.06-1.36A1.22,1.22,0,0,1,42,58.6c-0.4-1.16-.7-2.35-1.05-3.6l1.25-1.1L39.93,51a6.59,6.59,0,0,1-1,.76,1.15,1.15,0,0,1-.88.07c-0.93-.43-1.83-0.92-2.72-1.44a1,1,0,0,1-.44-0.65c-0.1-1.56-.08-1.56-1.63-1.71a7.59,7.59,0,0,1-1-.1c-0.84-.19-1.18.12-1.21,1a1.24,1.24,0,0,1-.49,1c-1.16.42-2.36,0.71-3.62,1.06l-1-1.19L23,52.11a4.14,4.14,0,0,0,.49.62,1,1,0,0,1,.08,1.56,23.17,23.17,0,0,0-1.2,2.25,1.19,1.19,0,0,1-.67.54c-0.49.11-1.21-.1-1.47,0.18A3.06,3.06,0,0,0,20,58.78c0,0.29,0,.59-0.09.88-0.18.81,0.06,1.25,1,1.2a0.93,0.93,0,0,1,1.12,1,3.71,3.71,0,0,0,.46,1.6A1.55,1.55,0,0,1,21.82,66a0.18,0.18,0,0,0-.1.15L24,69Z"/><path class="cls-1" d="M37.37,60.58a5.45,5.45,0,1,1-4.84-6A5.44,5.44,0,0,1,37.37,60.58Zm-5.07-4.3a3.74,3.74,0,1,0,3.37,4A3.82,3.82,0,0,0,32.3,56.28Z"/></g></svg>