<svg id="Layer_1" data-name="Layer 1" xmlns="http://www.w3.org/2000/svg" viewBox="0 0 100 100"><defs><style>.cls-1{fill:none;stroke:#2196f3;stroke-miterlimit:10;stroke-width:2px;}</style></defs><title>adtoken icons</title><path class="cls-1" d="M25.47,51.48L39.72,36.14l3.49,3.18a14.38,14.38,0,0,0-2.59,2.27,16.06,16.06,0,0,0-3,4.51,3.7,3.7,0,0,0,3,4.65,10,10,0,0,0,8.13-2.19c1.18-1,2.2-1.16,3.41-.3a38.15,38.15,0,0,1,3.47,2.6Q61.36,56,66.92,61.26c2.65,2.51,2.64,4.86,0,7.56a14.62,14.62,0,0,1,.64,1.51,4,4,0,0,1-3.71,5.29,2.31,2.31,0,0,0-1.45.52c-2,2.35-3.21,2.71-6.4,1.42a8.92,8.92,0,0,1-1.3,1.59c-0.49.4-2.58,0.16-3.61,0.6,1.6-2.76,3.16-4.85,1-6.59-1.56-1.23-1.9.47-3.16-1-0.63-2.89-2.78-2.81-4-4.7-1-1.62-2.92-5.36-6.6-4.16-2.32-3.62-1.6-3.9-5.64-2.87C32.35,56.55,27.48,54.42,25.47,51.48Z"/><path class="cls-1" d="M62.12,35.68L76.44,51.09c-1.58,1.49-3.42,2.74-4.58,4.45s-1,3.48-1.87,5.6c-3.73-3.48-7-7.09-10.62-10.37A57.15,57.15,0,0,0,53.25,46a4.29,4.29,0,0,0-5.66.21c-1.6,1.4-3.09,2.59-5.15,2.34a2.84,2.84,0,0,1-2.13-1.25c-0.81-1,.15-1.43,1-2.38,2.18-2.49,3.5-4.84,6.92-5a12.42,12.42,0,0,1,3.12.06,9.17,9.17,0,0,0,9.83-3.53A8.18,8.18,0,0,1,62.12,35.68Z"/><path class="cls-1" d="M37.8,64.87c3.56-2,6.28-.31,6,3.6,3.2,0.55,4,1.45,4,4.81,0.44,0,.89,0,1.34.09a3.28,3.28,0,0,1,2.32,5.23,14.19,14.19,0,0,1-2.67,2.72,3.24,3.24,0,0,1-5.16-1.69,17.17,17.17,0,0,1-.36-1.68c-3.93,2.72-6.17.86-6.74-2.51C34.77,76,33,76,32,74.23s-0.47-3.43,1-4.77a8.3,8.3,0,0,1-2.68-1.09,4.25,4.25,0,0,1-1.2-2.53c-0.19-2.13,3.13-5.38,5.28-5.38S37.63,61.74,37.8,64.87Z"/><path class="cls-1" d="M84.45,45.36a5.44,5.44,0,0,1-.69,1.29,39.26,39.26,0,0,1-3.91,3.68,2.13,2.13,0,0,1-2.07-.17q-7.54-7.92-14.88-16A2.14,2.14,0,0,1,63,32.07a48.3,48.3,0,0,1,3.84-3.76c1.08-1,1.86-.35,2.63.48q7.11,7.73,14.23,15.45A9.94,9.94,0,0,1,84.45,45.36Z"/><path class="cls-1" d="M39.48,33.77A10,10,0,0,1,38.64,35c-4.8,5.19-9.62,10.35-14.4,15.54-0.94,1-1.76,1.15-2.77.13s-2.09-2-3.15-3a1.48,1.48,0,0,1-.06-2.39c4.77-5.36,9.5-10.77,14.32-16.09a2.18,2.18,0,0,1,2-.44A57.15,57.15,0,0,1,39,32.88,3.43,3.43,0,0,1,39.48,33.77Z"/></svg>