<?xml version="1.0" encoding="utf-8"?>
<!-- Generator: Adobe Illustrator 21.1.0, SVG Export Plug-In . SVG Version: 6.00 Build 0)  -->
<svg version="1.1" id="Layer_1" xmlns="http://www.w3.org/2000/svg" xmlns:xlink="http://www.w3.org/1999/xlink" x="0px" y="0px"
	 viewBox="0 0 50 50" style="enable-background:new 0 0 50 50;" xml:space="preserve">
<style type="text/css">
	.st0{fill:#212121;}
	.st1{fill:#FFFFFF;}
	.st2{fill:none;}
	.st3{fill:#D8D8D8;}
	.st4{fill:#FAFAFA;}
	.st5{fill:#424242;}
	.st6{fill:#12164B;}
</style>
<g id="Layer_2_13_">
	<g>
		<rect x="21.6" y="21.7" transform="matrix(0.9482 -0.3176 0.3176 0.9482 -6.6237 9.2308)" class="st4" width="6.8" height="6.5"/>
		<g>
			<path class="st4" d="M47,18.3C42,1.8,34.9-2,18.4,2.9S-1.9,15,3,31.5s12.1,20.3,28.6,15.4S51.9,34.8,47,18.3z"/>
		</g>
	</g>
</g>
<path class="st5" d="M43.7,24.7c0-1.7-0.5-3.4-1.5-4.9c-0.9-1.4-2.2-2.6-3.8-3.6c-3.1-2-7.2-3.1-11.5-3.1c-1.4,0-2.9,0.1-4.2,0.4
	c-0.9-0.8-1.8-1.5-2.9-2.1c-5.6-2.7-10.3-0.1-10.3-0.1s4.3,3.6,3.6,6.7c-1.9,1.9-3,4.3-3,6.7c0,0,0,0,0,0c0,0,0,0,0,0
	c0,2.4,1.1,4.7,3,6.7c0.7,3.1-3.6,6.7-3.6,6.7s4.7,2.7,10.3-0.1c1.1-0.6,2.1-1.3,2.9-2.1c1.4,0.2,2.8,0.4,4.2,0.4
	c4.3,0,8.4-1.1,11.5-3.1c1.6-1,2.9-2.2,3.8-3.6C43.1,28.1,43.7,26.4,43.7,24.7C43.7,24.7,43.7,24.7,43.7,24.7L43.7,24.7L43.7,24.7z"
	/>
<path class="st1" d="M26.9,15.5c8,0,14.4,4.1,14.4,9.2c0,5.1-6.5,9.2-14.4,9.2c-1.8,0-3.5-0.2-5-0.6c-1.6,1.9-5.1,4.6-8.5,3.7
	c1.1-1.2,2.8-3.2,2.4-6.5c-2-1.6-3.3-3.6-3.3-5.8C12.4,19.6,18.9,15.5,26.9,15.5"/>
<path class="st5" d="M26.9,26.9c1.1,0,1.9-0.9,1.9-1.9c0-1.1-0.9-1.9-1.9-1.9c-1.1,0-1.9,0.9-1.9,1.9C24.9,26.1,25.8,26.9,26.9,26.9
	z M33.5,26.9c1.1,0,1.9-0.9,1.9-1.9c0-1.1-0.9-1.9-1.9-1.9s-1.9,0.9-1.9,1.9C31.6,26.1,32.5,26.9,33.5,26.9z M20.2,26.9
	c1.1,0,1.9-0.9,1.9-1.9c0-1.1-0.9-1.9-1.9-1.9c-1.1,0-1.9,0.9-1.9,1.9C18.3,26.1,19.1,26.9,20.2,26.9L20.2,26.9z"/>
</svg>
