<?xml version="1.0" encoding="utf-8"?>
<!-- Generator: Adobe Illustrator 21.1.0, SVG Export Plug-In . SVG Version: 6.00 Build 0)  -->
<svg version="1.1" id="Layer_1" xmlns="http://www.w3.org/2000/svg" xmlns:xlink="http://www.w3.org/1999/xlink" x="0px" y="0px"
	 viewBox="0 0 100 100" style="enable-background:new 0 0 100 100;" xml:space="preserve">
<style type="text/css">
	.st0{fill:#EAEAEA;stroke:#EAEAEA;stroke-miterlimit:10;}
	.st1{fill:#212121;}
	.st2{fill:#2250A4;}
	.st3{fill:#424242;}
	.st4{fill:#F4F4F4;stroke:#F4F4F4;stroke-miterlimit:10;}
	.st5{fill:#FFFFFF;}
	.st6{fill:#FAFAFA;}
	.st7{fill:#272425;}
</style>
<g id="Layer_2_8_">
	<rect x="43" y="43.4" transform="matrix(0.9482 -0.3176 0.3176 0.9482 -13.3103 18.435)" class="st6" width="13.8" height="13.4"/>
	<path class="st6" d="M94.9,36.5C84.8,2.7,70.1-5.1,36.4,5S-5.3,29.7,4.9,63.5S29.6,105.1,63.4,95S105,70.3,94.9,36.5z"/>
</g>
<g>
	<polygon class="st7" points="69.7,77.5 69.7,59.6 75.7,59.6 75.7,83.5 22,83.5 22,59.6 27.9,59.6 27.9,77.5 	"/>
	<path class="st7" d="M34.5,57.9L63.7,64l1.2-5.9L35.7,52L34.5,57.9z M38.3,44l27,12.6l2.5-5.4l-27-12.7L38.3,44z M45.8,30.7
		l23,19.1l3.8-4.6l-23-19.1L45.8,30.7z M60.7,16.6l-4.8,3.6l17.8,24l4.8-3.6L60.7,16.6z M33.9,71.5h29.8v-6H33.9V71.5z"/>
</g>
</svg>
