<svg id="Layer_1" data-name="Layer 1" xmlns="http://www.w3.org/2000/svg" viewBox="0 0 50 50"><defs><style>.cls-1{fill:#c9cdd0;}.cls-2{fill:#e5e5e5;}.cls-3{fill:#f9f9f9;}.cls-4{fill:#fff;}</style></defs><title>telegram-white</title><g id="Layer_2" data-name="Layer 2"><path class="cls-1" d="M47,18.88C42,2.38,34.9-1.46,18.4,3.49S-1.94,15.58,3,32.08,15.1,52.42,31.6,47.47,51.94,35.38,47,18.88Z"/></g><path class="cls-2" d="M20.64,35c-.81,0-.67-.31-.95-1.08L17.31,26.1,35.6,15.25"/><path class="cls-3" d="M20.64,35a1.61,1.61,0,0,0,1.25-.63l3.32-3.23-4.15-2.5"/><path class="cls-4" d="M21.06,28.64l10.06,7.42c1.14.64,2,.31,2.26-1.06l4.09-19.28c.42-1.68-.64-2.44-1.74-1.94L11.71,23c-1.64.66-1.63,1.57-.3,2l6.16,1.92,14.27-9c.68-.41,1.3-.19.79.26"/></svg>