<svg id="Layer_1" data-name="Layer 1" xmlns="http://www.w3.org/2000/svg" viewBox="0 0 49.78 49.77"><defs><style>.cls-1{fill:#d8d8d8;}.cls-2{fill:#0e1333;}.cls-3{fill:#0c1033;}.cls-4{fill:#12164b;}</style></defs><title>Social Media Icons</title><rect class="cls-1" x="21.62" y="21.57" width="6.75" height="6.52" transform="translate(-6.59 9.23) rotate(-18.52)"/><path class="cls-1" d="M47,18.2C42,1.7,34.9-2.14,18.4,2.81S-1.94,14.9,3,31.4,15.1,51.74,31.6,46.79,51.94,34.7,47,18.2Z"/><path class="cls-2" d="M20.64,36.25c-.81,0-.67-.3-.95-1.07l-2.38-7.82L35.6,16.51"/><path class="cls-3" d="M20.64,36.25a1.6,1.6,0,0,0,1.25-.62l3.32-3.23-4.15-2.5"/><path class="cls-4" d="M21.06,29.9l10.05,7.42c1.15.63,2,.31,2.27-1.06L37.47,17c.42-1.68-.64-2.44-1.74-2l-24,9.27c-1.64.66-1.63,1.57-.29,2l6.16,1.92,14.27-9c.68-.41,1.3-.19.79.26"/></svg>